<svg width="95" height="94" viewBox="0 0 95 94" fill="none" xmlns="http://www.w3.org/2000/svg">
<path d="M83.7966 19.9013C64.3509 -4.69506 18.3123 -6.06995 4.77674 13.4406C-2.68299 24.1882 0.434836 40.2566 1.97192 48.1845C4.80275 62.7739 11.7813 72.1669 13.3042 74.1593C17.0025 78.9926 25.9848 90.7366 39.4966 93.4205C62.5853 98.0073 91.395 74.6545 92.9911 48.3112C93.9112 33.1204 85.4778 22.0278 83.7966 19.9013Z" fill="#F4F7FA"/>
<path d="M71.2427 79.8694C68.4609 76.6663 64.8324 71.5137 63.6253 64.5941C62.2391 56.6489 65.312 53.6357 65.3588 44.4926C65.4272 31.4412 56.7148 25.7101 60.1797 20.2576C61.8696 17.5988 65.6163 16.0053 68.6227 16.6763C77.2019 18.5913 84.0459 39.8994 76.964 52.3591C73.7608 57.9938 69.452 59.3174 67.8789 65.5166C66.4869 70.9936 69.0362 76.3574 71.2427 79.8694Z" fill="url(#paint0_linear_260_33555)"/>
<g style="mix-blend-mode:soft-light">
<g style="mix-blend-mode:soft-light">
<path d="M66.437 70.8446C66.1733 69.1035 66.0589 67.3428 66.0951 65.582C66.1792 61.5515 67.061 58.983 68.1773 55.7312C68.9025 53.6185 69.7243 51.2241 70.4707 47.9762C71.8665 41.9008 72.2193 39.8262 72.0437 36.8059C71.6957 30.824 69.4495 26.2831 68.1416 24.1085C66.2888 21.0263 63.8508 18.34 60.9663 16.2023L61.0353 16.1085C63.9321 18.2555 66.3804 20.9534 68.2411 24.0489C69.5545 26.2324 71.81 30.7927 72.1596 36.7994C72.3362 39.8346 71.9827 41.9149 70.5837 48.0029C69.836 51.257 69.0132 53.6547 68.2871 55.7699C67.174 59.012 66.2951 61.5738 66.211 65.5853C66.175 67.3393 66.289 69.0933 66.5516 70.8278L66.437 70.8446Z" fill="white"/>
</g>
<g style="mix-blend-mode:soft-light">
<path d="M71.5166 32.7141L71.4778 32.6264C69.7982 28.8271 66.3189 27.3839 63.6957 26.8422C60.8472 26.2537 58.3641 26.571 58.3391 26.5742L58.324 26.4588C58.349 26.4556 60.8485 26.1364 63.7172 26.7271C66.3474 27.2697 69.8303 28.7107 71.5452 32.4894C71.8287 32.1073 73.0771 30.3291 73.7898 27.7495C74.5308 25.0691 74.8274 20.9502 72.0341 16.5499L72.132 16.487C74.9494 20.9254 74.6489 25.0807 73.9006 27.7853C73.09 30.7144 71.5924 32.6219 71.5776 32.6393L71.5166 32.7141Z" fill="white"/>
</g>
<g style="mix-blend-mode:soft-light">
<path d="M70.993 46.3491C70.9426 46.3491 70.915 46.3491 70.9127 46.3491H70.864L70.8572 46.3004C70.2556 42.1245 68.2376 39.7169 66.6517 38.4329C64.9313 37.0403 63.3316 36.6302 63.3159 36.6273L63.3438 36.5141C63.3599 36.5183 64.9811 36.9333 66.7201 38.3397C68.3188 39.6324 70.3497 42.0501 70.9657 46.236H70.9814C71.7073 46.236 78.3439 46.0715 81.5552 40.2947L81.6566 40.3514C79.8704 43.5649 77.0444 45.0268 74.9885 45.6846C73.0235 46.3104 71.3686 46.3491 70.993 46.3491Z" fill="white"/>
</g>
<g style="mix-blend-mode:soft-light">
<path d="M70.4758 55.2511C69.2318 55.2511 68.4876 54.9931 68.478 54.9905L68.4388 54.9767V54.9351C68.4902 50.4119 63.5425 45.1461 63.4924 45.0935L63.5765 45.0129C63.6266 45.0658 68.5759 50.3332 68.5554 54.8932C68.7817 54.9628 69.974 55.2891 71.7564 55.0457C73.5817 54.7964 76.4171 53.882 79.5574 50.9394L79.6367 51.0248C76.4697 53.9913 73.6071 54.9122 71.7634 55.1624C71.3367 55.2209 70.9065 55.2505 70.4758 55.2511Z" fill="white"/>
</g>
</g>
<path d="M65.0196 75.6393C63.5561 73.3158 61.6761 69.5129 62.2312 65.1638C63.1997 57.5749 70.4893 56.8588 73.9054 47.7176C76.6605 40.345 73.3722 36.922 77.4078 31.0855C78.082 30.1085 81.5985 24.8185 86.038 25.219C88.5398 25.4447 90.2245 27.3742 90.5408 27.7363C95.3205 33.211 93.0624 45.9219 86.5674 54.0558C82.8358 58.7292 80.9154 58.5358 73.6942 65.2054C70.3624 68.2889 67.4462 71.7966 65.0196 75.6393V75.6393Z" fill="url(#paint1_linear_260_33555)"/>
<g style="mix-blend-mode:soft-light">
<g style="mix-blend-mode:soft-light">
<path d="M65.4528 78.9737C64.1751 72.473 64.8336 67.4606 67.4111 64.077C68.6728 62.4196 69.9328 61.707 71.2664 60.9525C72.6991 60.1422 74.1807 59.3042 75.7088 57.1845C77.1938 55.1247 77.4179 53.6531 77.7014 51.7904C77.9566 50.1137 78.2744 48.0262 79.6237 44.8524C80.8067 42.0707 81.8796 40.5482 82.8263 39.2049C83.8514 37.751 84.6607 36.6025 85.2267 34.3915C86.1512 30.7802 85.7609 26.8183 84.0665 22.6166L84.174 22.5728C85.878 26.7967 86.27 30.7843 85.339 34.4208C84.7679 36.6521 83.9528 37.8084 82.9213 39.2723C81.9778 40.6107 80.9085 42.1281 79.7306 44.8985C78.3868 48.0584 78.0706 50.1375 77.816 51.8081C77.5303 53.6863 77.3043 55.1702 75.8028 57.2528C74.2596 59.3932 72.7669 60.2377 71.3235 61.0541C70.0002 61.8025 68.7504 62.5093 67.5032 64.1479C64.9478 67.5048 64.2965 72.4859 65.5678 78.9521L65.4528 78.9737Z" fill="white"/>
</g>
<g style="mix-blend-mode:soft-light">
<path d="M82.4104 39.9065L82.404 39.8288C82.3963 39.734 81.5744 30.3152 77.0955 28.1829L77.1452 28.0775C81.4653 30.1343 82.4232 38.8247 82.5125 39.7417C87.0788 37.9422 89.7138 34.7981 91.1218 32.471C92.6554 29.9373 93.1039 27.8027 93.1084 27.7815L93.222 27.805C93.2178 27.8263 92.7649 29.9805 91.221 32.5316C89.7963 34.8854 87.1237 38.0718 82.4826 39.8784L82.4104 39.9065Z" fill="white"/>
</g>
<g style="mix-blend-mode:soft-light">
<path d="M78.5194 48.3164H78.4728H78.423L78.4163 48.2667C78.0866 45.7462 76.9335 43.0025 76.0243 41.145C75.0384 39.1307 74.1197 37.6949 74.1104 37.6816L74.2067 37.6172C74.2156 37.6317 75.1376 39.0723 76.127 41.0924C77.034 42.9458 78.1816 45.6778 78.5235 48.2C78.8934 48.2 81.2821 48.1577 84.3056 47.2036C87.329 46.2495 91.618 44.1649 94.904 39.6434L94.9977 39.712C91.6912 44.2607 87.3752 46.3582 84.3361 47.3165C81.2866 48.2783 78.876 48.3164 78.5194 48.3164Z" fill="white"/>
</g>
<g style="mix-blend-mode:soft-light">
<path d="M75.9093 60.5946C73.8226 60.5946 72.5853 60.3115 72.5577 60.3044L72.498 60.2902L72.5153 60.2312C74.0942 54.8419 70.036 48.7662 69.9946 48.7053L70.0909 48.6408C70.1324 48.7017 74.1918 54.7771 72.6444 60.2047C73.3105 60.3434 79.4428 61.4655 87.3979 57.8803L87.4454 57.9867C82.7006 60.1241 78.5988 60.5946 75.9093 60.5946Z" fill="white"/>
</g>
</g>
<path d="M64.0391 73.5531C65.467 71.193 67.2202 69.0476 69.2465 67.1807C73.8516 62.9497 76.8134 63.0329 78.139 59.7582C79.5101 56.3683 76.9833 54.6765 78.7069 50.8098C78.8516 50.4844 80.7319 46.4065 83.929 46.2692C86.1656 46.1724 87.8456 48.0574 88.634 48.9412C91.6937 52.3723 93.4726 58.825 90.4806 63.652C87.644 68.228 81.9537 69.0393 80.1435 69.2853C76.9653 69.7167 75.8205 68.8881 72.6266 69.4143C68.7399 70.0524 65.841 72.0335 64.0391 73.5531Z" fill="url(#paint2_linear_260_33555)"/>
<path d="M31.2261 85.299C32.6897 82.9755 34.5696 79.1726 34.0146 74.8235C33.046 67.2346 25.7564 66.5184 22.3404 57.3772C19.5853 50.0046 22.8739 46.5816 18.8383 40.7451C18.1641 39.7681 14.6476 34.4782 10.2078 34.8787C7.70598 35.1044 6.02155 37.0338 5.70533 37.3959C0.925225 42.8707 3.18366 55.5816 9.67838 63.7155C13.4103 68.3889 15.3304 68.1954 22.5516 74.8651C25.8835 77.9485 28.7997 81.4562 31.2261 85.299V85.299Z" fill="url(#paint3_linear_260_33555)"/>
<g style="mix-blend-mode:soft-light">
<g style="mix-blend-mode:soft-light">
<path d="M30.7927 88.6336L30.6788 88.611C31.9501 82.1448 31.2987 77.1644 28.7433 73.8068C27.4961 72.1682 26.2463 71.4614 24.9231 70.713C23.4784 69.8966 21.9866 69.0521 20.4434 66.9118C18.942 64.8292 18.716 63.3453 18.4303 61.4671C18.176 59.7965 17.8595 57.7174 16.5156 54.5575C15.3378 51.7871 14.2685 50.269 13.3253 48.9312C12.2935 47.4674 11.4787 46.3114 10.9073 44.0798C9.9763 40.4433 10.3686 36.4573 12.0723 32.2318L12.1798 32.2756C10.4858 36.4773 10.0954 40.4391 11.0196 44.0505C11.5856 46.2614 12.3953 47.41 13.42 48.8639C14.3667 50.2071 15.4399 51.7297 16.6226 54.5114C17.9709 57.6852 18.2897 59.7723 18.5449 61.4493C18.8283 63.3121 19.0524 64.7837 20.5375 66.8434C22.0659 68.9632 23.5471 69.8012 24.9799 70.6115C26.3138 71.366 27.5735 72.0786 28.8351 73.7359C31.412 77.1225 32.0708 82.1335 30.7927 88.6336Z" fill="white"/>
</g>
<g style="mix-blend-mode:soft-light">
<path d="M13.8353 49.5668L13.7628 49.5387C9.12169 47.7331 6.44913 44.5464 5.02441 42.1919C3.48058 39.6408 3.02793 37.4866 3.02344 37.4653L3.1374 37.4417C3.14158 37.463 3.59134 39.6021 5.12617 42.1355C6.5342 44.4609 9.16856 47.6031 13.7329 49.402C13.8222 48.485 14.7801 39.7933 19.1002 37.7377L19.15 37.8432C14.6707 39.9774 13.8498 49.3943 13.8414 49.4894L13.8353 49.5668Z" fill="white"/>
</g>
<g style="mix-blend-mode:soft-light">
<path d="M17.7266 57.9767C17.3699 57.9767 14.9593 57.9386 11.9076 56.9771C8.86843 56.0188 4.55156 53.9213 1.24561 49.3727L1.33967 49.304C4.62668 53.8272 8.91979 55.914 11.9423 56.8659C14.9648 57.8177 17.3497 57.8603 17.7208 57.8606C18.0614 55.3385 19.2104 52.6064 20.1173 50.753C21.106 48.7329 22.0287 47.2923 22.0377 47.2778L22.134 47.3423C22.1247 47.3564 21.2052 48.7932 20.2197 50.8069C19.3105 52.6641 18.1577 55.4075 17.828 57.9273L17.8216 57.977H17.7715L17.7266 57.9767Z" fill="white"/>
</g>
<g style="mix-blend-mode:soft-light">
<path d="M20.3361 70.2546C17.6465 70.2546 13.5454 69.7844 8.80029 67.646L8.8478 67.5396C16.8032 71.1252 22.9348 70.0031 23.6013 69.8647C22.0543 64.4368 26.1133 58.3613 26.1548 58.3004L26.2511 58.3649C26.21 58.4258 22.1519 64.5016 23.7303 69.8908L23.7477 69.9499L23.6883 69.964C23.66 69.9718 22.4228 70.2546 20.3361 70.2546Z" fill="white"/>
</g>
</g>
<path d="M32.207 83.2134C30.7788 80.8534 29.0256 78.708 26.9993 76.841C22.3945 72.61 19.4324 72.6932 18.1068 69.4185C16.7357 66.0287 19.2625 64.3368 17.5389 60.4701C17.3941 60.1451 15.5139 56.0669 12.3168 55.9295C10.0802 55.8328 8.40021 57.7178 7.61176 58.6016C4.55333 62.0323 2.77451 68.4853 5.76617 73.3122C8.6031 77.8883 14.293 78.6996 16.1033 78.9456C19.2815 79.377 20.4263 78.5483 23.6205 79.0746C27.5059 79.7127 30.4048 81.6937 32.207 83.2134Z" fill="url(#paint4_linear_260_33555)"/>
<path d="M55.0056 31.207C54.9843 31.2092 54.9629 31.2103 54.9414 31.2103C54.6008 31.2103 54.31 30.931 54.2769 30.558C53.6894 23.936 51.6891 17.6433 48.6396 12.8396C45.9382 8.58337 42.7218 6.04448 40.0361 6.04448H40.0271C30.2396 6.06512 28.192 30.3074 28.1725 30.5525C28.1404 30.9491 27.8193 31.2428 27.4495 31.209C27.0797 31.1751 26.8094 30.8256 26.8412 30.429C26.9249 29.3756 29.0206 4.62607 40.0245 4.60156H40.0364C43.2114 4.60156 46.7488 7.30587 49.744 12.0235C52.9189 17.0255 55.0018 23.5591 55.6079 30.4209C55.6413 30.8201 55.3719 31.1706 55.0056 31.207Z" fill="url(#paint5_linear_260_33555)"/>
<path d="M14.1646 81.1043L27.0491 88.1416L34.8559 62.298L21.9926 27.6505L18.3444 28.6153L12.8108 78.3749C12.6856 79.5015 13.2266 80.5919 14.1646 81.1043Z" fill="url(#paint6_linear_260_33555)"/>
<path style="mix-blend-mode:multiply" opacity="0.3" d="M34.8558 62.2977L21.9925 27.6505L19.8416 28.2197C19.5434 32.8457 19.6744 36.6531 19.8773 39.4248C20.7396 51.2212 23.6031 54.504 22.216 62.733C21.0625 69.5758 18.5431 70.5038 18.7633 75.1079C19.0034 80.1218 22.2449 84.3206 26.0991 87.6224L27.0497 88.1416L34.8558 62.2977Z" fill="url(#paint7_linear_260_33555)"/>
<path d="M21.9924 27.6505L70.5133 30.3039L85.9329 83.0231L27.0493 88.1416L21.9924 27.6505Z" fill="url(#paint8_linear_260_33555)"/>
<g style="mix-blend-mode:multiply" opacity="0.3">
<path style="mix-blend-mode:multiply" opacity="0.3" d="M70.5133 30.3042L45.2092 28.9206C44.7822 29.5948 44.2166 30.694 44.1113 32.0947C43.4885 40.3814 60.5159 43.0664 62.042 53.2403C63.2035 60.986 56.0568 69.9234 49.6799 73.9052C42.9614 78.1005 38.4092 75.9759 33.8653 80.6335C31.8689 82.6798 30.6531 85.2386 29.9302 87.8914L85.933 83.0225L70.5133 30.3042Z" fill="url(#paint9_linear_260_33555)"/>
</g>
<path d="M36.8747 32.3965C36.5716 32.3965 36.2968 32.1708 36.2249 31.84C36.0882 31.2122 32.9318 16.3748 37.3813 9.09345C38.6567 7.00629 40.4387 5.73233 42.6782 5.30606C54.1833 3.11927 61.2658 29.7764 61.5624 30.9123C61.6623 31.2954 61.4552 31.6936 61.0998 31.8013C60.7445 31.909 60.3756 31.6855 60.2757 31.3022C60.2064 31.0368 53.234 4.75953 42.9103 6.72609C41.0211 7.08561 39.5774 8.11936 38.4972 9.88601C34.3601 16.6547 37.493 31.3621 37.5251 31.5101C37.6092 31.8971 37.3864 32.284 37.0272 32.3765C36.9773 32.3894 36.9261 32.3961 36.8747 32.3965V32.3965Z" fill="url(#paint10_linear_260_33555)"/>
<path d="M36.8794 34.5198C37.9108 34.5198 38.7468 33.6178 38.7468 32.5052C38.7468 31.3926 37.9108 30.4906 36.8794 30.4906C35.848 30.4906 35.012 31.3926 35.012 32.5052C35.012 33.6178 35.848 34.5198 36.8794 34.5198Z" fill="url(#paint11_linear_260_33555)"/>
<path d="M61.2341 34.3331C62.2655 34.3331 63.1016 33.4311 63.1016 32.3185C63.1016 31.2059 62.2655 30.3039 61.2341 30.3039C60.2028 30.3039 59.3667 31.2059 59.3667 32.3185C59.3667 33.4311 60.2028 34.3331 61.2341 34.3331Z" fill="url(#paint12_linear_260_33555)"/>
<path d="M74.2262 55.6719L59.1623 40.918C59.0121 40.7672 58.8202 40.6653 58.6117 40.6254C58.4031 40.5855 58.1873 40.6094 57.9925 40.6942L49.9533 44.2194C49.2759 44.5164 49.0425 45.4247 49.4814 46.0573L62.6015 64.925C62.9642 65.4467 63.6461 65.5615 64.1389 65.1829L74.1229 57.5433C74.703 57.099 74.754 56.1884 74.2262 55.6719ZM57.0005 46.1038C56.4926 46.4717 55.6926 46.147 55.2136 45.378C54.7347 44.6089 54.7571 43.6871 55.2647 43.3189C55.7722 42.9506 56.5722 43.2756 57.0515 44.0447C57.5308 44.8137 57.5096 45.7365 57.0005 46.1038Z" fill="#D8DEE8"/>
<path d="M74.2263 55.4703L59.1623 40.7168C59.0121 40.5656 58.82 40.4634 58.6111 40.4235C58.4022 40.3836 58.1862 40.408 57.9912 40.4933L49.952 44.0186C49.2747 44.3155 49.0413 45.2238 49.4801 45.8565L62.6002 64.7244C62.963 65.2458 63.6449 65.3609 64.1376 64.9823L74.1216 57.3431C74.703 56.8975 74.754 55.9869 74.2263 55.4703ZM57.0005 45.9032C56.4927 46.2714 55.6927 45.9464 55.2137 45.1774C54.7347 44.4084 54.7572 43.4865 55.2647 43.1186C55.7723 42.7507 56.5723 43.0754 57.0516 43.8444C57.5309 44.6135 57.5097 45.535 57.0005 45.9032V45.9032Z" fill="#F4F7FA"/>
<path d="M53.8696 42.28C53.8454 42.28 53.8216 42.2728 53.8014 42.2593C53.7812 42.2458 53.7654 42.2267 53.756 42.2042C53.234 40.9686 52.5303 39.9013 51.6639 39.032C49.2883 36.6499 46.2247 36.2755 43.2603 35.9131C40.3104 35.5526 37.5242 35.2124 35.8597 32.8544C35.4385 32.2576 34.7839 31.1777 35.1351 30.6599C35.276 30.4516 35.5573 30.3558 35.9698 30.3758C35.9862 30.3763 36.0024 30.38 36.0174 30.3868C36.0324 30.3936 36.0458 30.4033 36.057 30.4154C36.0682 30.4275 36.0769 30.4417 36.0826 30.4572C36.0882 30.4727 36.0907 30.4892 36.09 30.5057C36.0892 30.5222 36.0851 30.5384 36.0781 30.5533C36.071 30.5682 36.061 30.5816 36.0488 30.5925C36.0365 30.6035 36.0222 30.612 36.0066 30.6173C35.9911 30.6227 35.9746 30.6249 35.9582 30.6238C35.737 30.6135 35.4503 30.6351 35.3393 30.7995C35.1528 31.0752 35.4356 31.8255 36.0613 32.7109C37.6622 34.979 40.3951 35.313 43.2898 35.6667C46.2956 36.034 49.4041 36.4138 51.8382 38.8563C52.7271 39.7485 53.4488 40.8422 53.983 42.1075C53.9953 42.1374 53.9955 42.1711 53.9835 42.2012C53.9715 42.2313 53.9483 42.2555 53.9188 42.2687C53.9033 42.2757 53.8866 42.2795 53.8696 42.28Z" fill="#26264F"/>
<path d="M55.1562 44.7766C55.1317 44.7767 55.1078 44.7694 55.0874 44.7558C55.0671 44.7421 55.0513 44.7227 55.0419 44.7C55.0326 44.6773 55.0302 44.6523 55.0351 44.6282C55.0399 44.6041 55.0518 44.582 55.0692 44.5648C55.0795 44.5541 56.1109 43.5059 56.1058 42.1074C56.1029 41.2485 55.7138 40.4308 54.9501 39.6772C53.3295 38.0786 49.0297 36.2271 45.2361 34.5943C42.9209 33.5973 40.7337 32.6558 39.2971 31.8439C38.9716 31.6598 38.6271 31.4847 38.273 31.3241C38.2574 31.318 38.2431 31.3087 38.2312 31.2969C38.2192 31.285 38.2098 31.2708 38.2034 31.2552C38.1971 31.2396 38.194 31.2228 38.1944 31.2059C38.1947 31.1891 38.1985 31.1724 38.2054 31.1571C38.2123 31.1417 38.2223 31.1279 38.2348 31.1166C38.2472 31.1052 38.2618 31.0965 38.2777 31.0911C38.2936 31.0856 38.3104 31.0834 38.3272 31.0846C38.3439 31.0859 38.3602 31.0906 38.3751 31.0984C38.7353 31.2619 39.0865 31.4402 39.4185 31.6278C40.8432 32.4339 43.0242 33.3722 45.3334 34.3663C49.1469 36.0082 53.4692 37.8693 55.1247 39.5002C55.9385 40.3031 56.3523 41.1807 56.3549 42.1094C56.3591 43.6126 55.2907 44.6957 55.2451 44.7411C55.2334 44.7527 55.2195 44.7618 55.2042 44.7679C55.1889 44.7739 55.1726 44.7769 55.1562 44.7766V44.7766Z" fill="#26264F"/>
<path d="M74.2263 55.4703L59.1624 40.7168C59.0122 40.5656 58.8201 40.4634 58.6112 40.4235C58.4023 40.3836 58.1862 40.408 57.9913 40.4933L57.2754 40.8071C57.4863 41.5877 57.7868 42.3412 58.1707 43.0522C60.3958 47.1504 64.0455 46.9737 64.8898 49.8176C65.6375 52.3385 63.13 53.6908 62.7996 57.2276C62.6343 58.9949 63.0112 61.3458 65.0304 64.2988L74.1206 57.3428C74.703 56.8975 74.754 55.9869 74.2263 55.4703Z" fill="white"/>
<path d="M60.7091 50.4483C61.5342 51.819 61.3634 52.9559 60.7059 53.4167C60.0138 53.9004 59.0192 53.5383 58.2789 52.3088C57.5752 51.1396 57.5377 49.905 58.3139 49.3611C59.0972 48.8123 60.0356 49.3298 60.7091 50.4483ZM59.0449 51.7142C59.4574 52.3997 59.9159 52.7805 60.2234 52.5651C60.5242 52.3543 60.4042 51.8081 59.9611 51.0722C59.5608 50.4074 59.1265 49.9814 58.7968 50.2117C58.4818 50.4325 58.6507 51.0597 59.0449 51.7142ZM62.4122 56.1184L60.9448 47.5183L61.5181 47.1165L62.9798 55.7215L62.4122 56.1184ZM65.6202 50.8759C66.4456 52.2466 66.2748 53.3835 65.6173 53.8423C64.9319 54.3228 63.9374 53.9591 63.1904 52.7344C62.4863 51.5653 62.4491 50.3306 63.2254 49.7867C64.0087 49.2398 64.9467 49.7573 65.6202 50.8759ZM63.9624 52.1376C64.3679 52.8276 64.826 53.2087 65.1339 52.9934C65.4344 52.7825 65.3143 52.2363 64.8716 51.5004C64.4709 50.8353 64.0427 50.4042 63.714 50.635C63.3933 50.8604 63.5689 51.4824 63.9624 52.1376Z" fill="#D8DEE8"/>
<path d="M62.7277 60.8763C62.6227 60.8751 62.52 60.8456 62.4301 60.7911C62.3403 60.7366 62.2666 60.6589 62.2166 60.5662C62.0455 60.2621 62.1354 59.8658 62.4173 59.6811L69.6725 54.9303C69.9547 54.7458 70.3219 54.8429 70.4931 55.1469C70.6642 55.451 70.5746 55.8473 70.2924 56.032L63.0372 60.7828C62.9452 60.8435 62.8377 60.876 62.7277 60.8763V60.8763Z" fill="#D8DEE8"/>
<path d="M53.1533 88.3347C53.1533 88.9964 52.6856 89.5655 52.1119 89.5997L11.6832 92.0799C10.9173 92.1253 10.0527 91.4747 10.0527 90.7056V62.288C10.0527 61.519 10.9381 60.8725 11.7041 60.9044L52.1119 62.6417C52.6856 62.6656 53.1533 63.2263 53.1533 63.888V88.3347Z" fill="url(#paint13_linear_260_33555)"/>
<path d="M53.9031 88.3812C53.9031 89.0461 53.4331 89.6177 52.8566 89.6522L11.996 92.0838C11.8159 92.0966 11.635 92.0718 11.4648 92.0111C11.2947 91.9503 11.1388 91.8549 11.0071 91.7307C10.8755 91.6065 10.7708 91.4564 10.6996 91.2896C10.6285 91.1229 10.5924 90.9432 10.5938 90.7618V62.2087C10.5931 62.0264 10.6294 61.8459 10.7005 61.6781C10.7715 61.5103 10.8758 61.3588 11.007 61.2328C11.1381 61.1068 11.2935 61.009 11.4635 60.9452C11.6336 60.8814 11.8147 60.8531 11.996 60.8619L52.8566 62.5637C53.4344 62.5876 53.9031 63.1512 53.9031 63.8161V88.3812Z" fill="url(#paint14_linear_260_33555)"/>
<path d="M53.903 81.687L10.594 83.9186V89.1482L53.903 86.5948V81.687Z" fill="url(#paint15_linear_260_33555)"/>
<g style="mix-blend-mode:multiply" opacity="0.15">
<path style="mix-blend-mode:multiply" opacity="0.15" d="M23.3759 70.3046C23.3268 73.5499 21.3062 75.2363 19.0561 75.2276C16.6051 75.2182 14.6401 73.3303 14.6866 70.2298C14.7312 67.2827 16.5807 65.1829 19.3261 65.389C21.991 65.5902 23.4167 67.656 23.3759 70.3046ZM17.5566 70.2423C17.5309 71.9352 18.0824 73.1656 19.1598 73.1859C20.1971 73.2052 20.7139 72.1438 20.7406 70.3678C20.765 68.762 20.3553 67.4955 19.2224 67.4271C18.1197 67.361 17.581 68.624 17.5566 70.2423V70.2423ZM19.8311 80.6755L27.6385 66.4779C27.7116 66.3449 27.8211 66.2358 27.9541 66.1636C28.0871 66.0913 28.238 66.059 28.3887 66.0703C28.5205 66.0802 28.6476 66.1231 28.7586 66.1951C28.8695 66.2672 28.9607 66.366 29.0238 66.4825C29.0869 66.5991 29.1199 66.7297 29.1198 66.8624C29.1197 66.9951 29.0864 67.1256 29.0231 67.242L21.3024 81.4355C21.2372 81.5554 21.1424 81.6563 21.0271 81.7285C20.9117 81.8008 20.7797 81.8419 20.6439 81.8479L20.5576 81.8518C20.4174 81.858 20.278 81.8266 20.1539 81.7608C20.0298 81.695 19.9254 81.5971 19.8514 81.4773C19.7774 81.3576 19.7365 81.2201 19.7329 81.0792C19.7294 80.9383 19.7633 80.7989 19.8311 80.6755V80.6755ZM33.1897 76.6744C33.1438 79.6802 31.4103 81.3246 29.4841 81.411C27.4138 81.5023 25.7438 79.8446 25.7647 76.9881C25.8057 74.2716 27.3814 72.2524 29.7249 72.3156C32.0064 72.3756 33.2267 74.2206 33.1897 76.6744V76.6744ZM28.2321 76.8717C28.1871 78.4349 28.6565 79.548 29.5769 79.5196C30.4632 79.4938 30.9069 78.491 30.9316 76.8485C30.9541 75.3633 30.6247 74.2116 29.6568 74.1996C28.6944 74.1884 28.2536 75.3778 28.2321 76.8717Z" fill="url(#paint16_linear_260_33555)"/>
</g>
<path d="M23.7528 70.1533C23.704 73.3987 21.6831 75.085 19.4333 75.0763C16.982 75.067 15.0169 73.1794 15.0638 70.0785C15.1081 67.1314 16.9579 65.0317 19.703 65.238C22.3678 65.4392 23.7929 67.5048 23.7528 70.1533ZM17.9335 70.0911C17.9081 71.7842 18.4596 73.0146 19.537 73.0346C20.5739 73.054 21.0911 71.9928 21.1178 70.2168C21.1418 68.6111 20.7325 67.3442 19.5993 67.2762C18.4975 67.2097 17.9592 68.4731 17.9335 70.0911V70.0911ZM20.2083 80.5242L28.0154 66.3269C28.0885 66.1939 28.1981 66.0848 28.3312 66.0125C28.4642 65.9402 28.6151 65.9078 28.7659 65.919V65.919C28.8977 65.929 29.0248 65.9719 29.1358 66.044C29.2467 66.116 29.3379 66.2149 29.401 66.3315C29.4641 66.4481 29.4971 66.5787 29.497 66.7114C29.4968 66.8441 29.4636 66.9746 29.4003 67.0911L21.6796 81.2846C21.6143 81.4043 21.5195 81.5051 21.4041 81.5773C21.2888 81.6495 21.1569 81.6906 21.0211 81.6966L20.9348 81.7005C20.7946 81.7067 20.6552 81.6753 20.5311 81.6095C20.407 81.5437 20.3026 81.4458 20.2286 81.3261C20.1546 81.2063 20.1137 81.0688 20.1101 80.9279C20.1066 80.787 20.1405 80.6477 20.2083 80.5242V80.5242ZM33.5666 76.5231C33.5213 79.5289 31.7868 81.1733 29.8619 81.2581C27.7919 81.3497 26.1216 79.6917 26.1428 76.8352C26.1836 74.1187 27.7595 72.0995 30.103 72.1627C32.3836 72.2243 33.6035 74.07 33.5666 76.5231V76.5231ZM28.608 76.7204C28.5634 78.2836 29.0327 79.3967 29.9528 79.3686C30.8394 79.3425 31.2828 78.3397 31.3075 76.6972C31.33 75.214 31.0009 74.0603 30.033 74.0487C29.0712 74.0368 28.6305 75.2269 28.608 76.7204Z" fill="white"/>
<path style="mix-blend-mode:multiply" opacity="0.3" d="M52.8564 62.5637L12.4666 60.8815C14.2897 66.3037 16.9003 68.7326 19.1439 69.9215C23.4136 72.185 26.4749 70.0234 30.134 72.9524C33.8901 75.9589 32.4596 79.6705 36.4143 82.1713C39.3867 84.0512 41.3026 82.655 44.3851 84.3549C46.6683 85.6124 48.0946 87.7447 49.0079 89.8799L52.8603 89.6507C53.4381 89.6162 53.9068 89.0445 53.9068 88.3796V63.8161C53.903 63.1512 53.4327 62.5876 52.8564 62.5637Z" fill="url(#paint17_linear_260_33555)"/>
<path style="mix-blend-mode:multiply" opacity="0.3" d="M53.3342 75.5597L52.3486 74.6204L51.4134 75.6103L50.4279 74.672L49.4927 75.6619L48.5072 74.7226L47.572 75.7125L46.5865 74.7732L45.6516 75.7631L44.6661 74.8239L43.7309 75.8137L42.7453 74.8745L41.8115 75.865L40.8259 74.9257L39.8908 75.9156L38.9052 74.9764L37.9704 75.9663L36.711 74.7661V89.5932C36.711 89.5932 36.6596 90.4425 35.6375 90.666L53.0674 89.3823C53.2603 89.3678 53.4483 89.3141 53.6199 89.2244C53.8048 88.9832 53.9049 88.6872 53.9043 88.3828V74.9573L53.3342 75.5597Z" fill="url(#paint18_linear_260_33555)"/>
<path d="M56.136 75.0679V88.5743C56.136 89.3282 55.5382 89.9544 54.7902 90.0098L49.2631 90.4164L37.3208 91.2934C38.343 91.07 38.3651 90.2207 38.3651 90.2207V75.3933L39.6492 76.5937L40.3218 75.895L40.603 75.6048L41.5914 76.5441L42.5282 75.5542L43.5144 76.4934L44.4499 75.5035L45.4354 76.4425L46.3706 75.4529L47.3562 76.3919L48.2913 75.402L49.2769 76.3412L50.2127 75.3514L51.1979 76.2906L52.1331 75.3007L53.1186 76.2406L54.0538 75.2501L55.058 76.1897L56.136 75.0679Z" fill="white"/>
<path d="M54.1238 82.9119L51.9681 83.0087C51.8983 83.0118 51.8324 83.0419 51.7842 83.0925C51.7359 83.1432 51.709 83.2107 51.709 83.2808V84.2745C51.709 84.3116 51.7165 84.3483 51.7311 84.3824C51.7457 84.4165 51.7671 84.4472 51.7939 84.4727C51.8208 84.4981 51.8525 84.5178 51.8872 84.5306C51.9219 84.5433 51.9588 84.5488 51.9957 84.5467L54.1514 84.4248C54.2207 84.421 54.2859 84.3907 54.3337 84.3401C54.3815 84.2895 54.4081 84.2224 54.4082 84.1527V83.1844C54.4082 83.1475 54.4007 83.111 54.3863 83.077C54.3718 83.0431 54.3506 83.0125 54.324 82.987C54.2974 82.9615 54.266 82.9417 54.2316 82.9288C54.1971 82.9159 54.1605 82.9102 54.1238 82.9119V82.9119Z" fill="#D8DEE8"/>
<path d="M54.1207 84.8324L51.9653 84.9546C51.896 84.9583 51.8307 84.9886 51.7829 85.0392C51.7351 85.0899 51.7085 85.157 51.7085 85.2267V86.264C51.7085 86.3013 51.716 86.3382 51.7308 86.3725C51.7455 86.4067 51.7671 86.4375 51.7942 86.463C51.8213 86.4885 51.8533 86.5082 51.8883 86.5208C51.9232 86.5334 51.9604 86.5386 51.9974 86.5362L54.1531 86.3982C54.2219 86.3937 54.2865 86.363 54.3336 86.3125C54.3808 86.262 54.4071 86.1953 54.4071 86.126V85.1045C54.407 85.0675 54.3995 85.0308 54.3849 84.9968C54.3703 84.9628 54.3489 84.9321 54.3221 84.9066C54.2953 84.8812 54.2637 84.8615 54.229 84.8487C54.1944 84.8359 54.1575 84.8304 54.1207 84.8324V84.8324Z" fill="#D8DEE8"/>
<path d="M54.4072 80.158V78.3801C54.4072 78.3434 54.3999 78.3072 54.3857 78.2735C54.3714 78.2398 54.3506 78.2093 54.3244 78.1839C54.2982 78.1585 54.2671 78.1386 54.2331 78.1255C54.199 78.1124 54.1627 78.1063 54.1263 78.1076L51.9706 78.1853C51.9004 78.1879 51.8339 78.2177 51.7851 78.2685C51.7363 78.3193 51.709 78.3872 51.709 78.4578V80.2553C51.709 80.2922 51.7164 80.3287 51.7309 80.3626C51.7453 80.3964 51.7664 80.427 51.7929 80.4525C51.8194 80.478 51.8508 80.4978 51.8852 80.5107C51.9195 80.5236 51.9561 80.5295 51.9928 80.5278L54.1481 80.4311C54.2181 80.428 54.2841 80.3978 54.3324 80.3469C54.3807 80.296 54.4075 80.2283 54.4072 80.158V80.158Z" fill="#D8DEE8"/>
<path d="M49.6447 83.1147L40.8677 83.5123C40.7979 83.5155 40.732 83.5456 40.6837 83.5963C40.6355 83.6471 40.6086 83.7146 40.6086 83.7848V84.9039C40.6086 84.941 40.6162 84.9777 40.6308 85.0118C40.6454 85.0459 40.6667 85.0766 40.6936 85.1021C40.7204 85.1275 40.7522 85.1473 40.7868 85.16C40.8215 85.1727 40.8584 85.1782 40.8953 85.1761L49.6723 84.6792C49.7416 84.6755 49.8069 84.6452 49.8547 84.5946C49.9025 84.5439 49.9291 84.4768 49.9291 84.4071V83.3872C49.9291 83.3503 49.9216 83.3138 49.9072 83.2798C49.8927 83.2459 49.8715 83.2153 49.8449 83.1898C49.8183 83.1643 49.7869 83.1446 49.7525 83.1317C49.718 83.1188 49.6814 83.113 49.6447 83.1147V83.1147Z" fill="#D8DEE8"/>
<path d="M49.6424 85.0868L40.8655 85.584C40.7961 85.5877 40.7308 85.618 40.683 85.6686C40.6352 85.7193 40.6086 85.7864 40.6086 85.8561V86.9769C40.6087 87.0142 40.6163 87.0511 40.631 87.0853C40.6458 87.1194 40.6674 87.1502 40.6945 87.1757C40.7215 87.2012 40.7535 87.2208 40.7885 87.2334C40.8234 87.2459 40.8605 87.2512 40.8976 87.2487L49.6745 86.6861C49.7434 86.6817 49.808 86.6511 49.8552 86.6005C49.9024 86.55 49.9287 86.4833 49.9287 86.4139V85.3593C49.9287 85.3222 49.9212 85.2855 49.9067 85.2514C49.8921 85.2174 49.8707 85.1866 49.8439 85.1611C49.8171 85.1356 49.7854 85.1159 49.7508 85.1031C49.7161 85.0903 49.6792 85.0848 49.6424 85.0868V85.0868Z" fill="#D8DEE8"/>
<path d="M49.9289 80.3608V78.5413C49.929 78.5046 49.9216 78.4684 49.9074 78.4346C49.8931 78.4009 49.8722 78.3704 49.846 78.345C49.8197 78.3195 49.7886 78.2997 49.7546 78.2866C49.7205 78.2735 49.6842 78.2675 49.6477 78.2688L40.8708 78.5861C40.8005 78.5887 40.734 78.6185 40.6852 78.6693C40.6364 78.7201 40.6092 78.788 40.6091 78.8585V80.7574C40.6091 80.7943 40.6166 80.8307 40.631 80.8646C40.6454 80.8985 40.6665 80.9291 40.6931 80.9546C40.7196 80.98 40.751 80.9998 40.7853 81.0128C40.8197 81.0257 40.8563 81.0315 40.8929 81.0299L49.6699 80.6323C49.7395 80.6292 49.8053 80.5992 49.8535 80.5486C49.9017 80.4981 49.9288 80.4308 49.9289 80.3608Z" fill="#D8DEE8"/>
<g style="mix-blend-mode:multiply" opacity="0.4">
<path d="M49.2539 90.4164L37.3171 91.2934C38.3396 91.07 38.3663 90.2207 38.3663 90.2207V75.3933L39.6504 76.5937L40.3229 75.895C40.8841 76.4048 41.3348 77.2234 41.46 78.5209C41.8773 82.8416 43.8921 82.556 46.2703 82.7181C48.6485 82.8803 49.7432 85.6449 48.7807 87.7805C48.3493 88.7358 48.5249 89.6977 49.2539 90.4164Z" fill="#F4F7FA"/>
</g>
<path d="M9.48999 90.923V92.6935C9.48999 93.2655 13.0479 93.7295 17.4374 93.7295C21.8268 93.7295 25.3844 93.2655 25.3844 92.6935V90.923H9.48999Z" fill="url(#paint19_linear_260_33555)"/>
<path d="M25.3844 90.923C25.3844 91.495 21.8265 91.959 17.4374 91.959C13.0483 91.959 9.48999 91.4959 9.48999 90.923C9.48999 90.35 13.0473 89.8879 17.4374 89.8879C21.8274 89.8879 25.3844 90.3519 25.3844 90.923Z" fill="url(#paint20_linear_260_33555)"/>
<path d="M17.4373 92.0312C13.55 92.0312 9.48511 91.6585 9.48511 90.9391C9.48511 90.8994 9.49923 90.8301 9.53872 90.8301C9.57821 90.8301 9.56087 90.8843 9.56087 90.9239C9.56087 91.3802 12.7956 91.8884 17.4373 91.8884C22.079 91.8884 25.3134 91.3802 25.3134 90.9239C25.3134 90.8843 25.3202 90.8475 25.3593 90.8475C25.3985 90.8475 25.3892 90.9001 25.3892 90.9397C25.3892 91.6588 21.3243 92.0312 17.4373 92.0312Z" fill="url(#paint21_linear_260_33555)"/>
<path d="M16.6862 90.9817C16.7641 90.9275 16.8474 90.8737 16.936 90.8204C17.0439 90.7595 17.1585 90.7116 17.2776 90.6776C17.4491 90.6287 17.6243 90.5938 17.8015 90.5734C18.062 90.5438 18.3239 90.5296 18.5861 90.5309C18.8934 90.5296 19.1823 90.5394 19.4529 90.5602C19.6916 90.5774 19.929 90.6091 20.1639 90.655C20.336 90.6867 20.5037 90.7389 20.6635 90.8104C20.7919 90.8723 20.867 90.9433 20.8917 91.0229L21.7864 91.0323C21.844 91.0318 21.9016 91.0371 21.9582 91.0481C22.0079 91.0584 22.0323 91.0713 22.0323 91.0871V91.1609L20.8821 91.15C20.8416 91.2405 20.7388 91.3233 20.5736 91.3986C20.3708 91.486 20.1593 91.5515 19.9427 91.594L19.5254 91.5356C19.494 91.5312 19.463 91.5239 19.433 91.5137C19.4086 91.5047 19.397 91.495 19.397 91.4847C19.397 91.4743 19.4291 91.4524 19.4933 91.436C19.5575 91.4195 19.6313 91.395 19.7129 91.3679C19.7947 91.3404 19.8749 91.3081 19.953 91.2712C20.0182 91.2455 20.0733 91.1994 20.1103 91.1396L17.3951 91.1126C17.3181 91.1688 17.238 91.2207 17.1553 91.268C17.0435 91.328 16.9249 91.3742 16.8021 91.4057C16.6229 91.4523 16.4405 91.4854 16.2564 91.5047C15.9827 91.533 15.7077 91.5466 15.4326 91.5453C15.1835 91.5453 14.9414 91.5369 14.7039 91.5169C14.4915 91.5003 14.2803 91.47 14.0718 91.4263C13.9151 91.3952 13.7628 91.3451 13.6182 91.277C13.5007 91.218 13.4345 91.15 13.4207 91.0729L12.6824 91.0652C12.624 91.0653 12.5658 91.0603 12.5084 91.05C12.4576 91.04 12.4316 91.0268 12.4316 91.0103V90.9365L13.4387 90.9462C13.4833 90.8681 13.5745 90.8001 13.7142 90.7424C13.8799 90.6765 14.0508 90.6248 14.2252 90.5879L14.5626 90.6344C14.665 90.6489 14.7161 90.6666 14.7161 90.6853C14.7161 90.6956 14.6955 90.7085 14.6519 90.7243C14.6082 90.7401 14.5588 90.7582 14.5007 90.7798C14.4431 90.8014 14.387 90.8268 14.3328 90.8559C14.2851 90.8792 14.2432 90.9129 14.2101 90.9546L16.6862 90.9817ZM14.2031 91.0842C14.2315 91.1405 14.2788 91.1849 14.3366 91.2096C14.4182 91.2494 14.5045 91.2786 14.5934 91.2964C14.7072 91.3206 14.8223 91.3373 14.9382 91.3463C15.0666 91.3567 15.2006 91.3616 15.3402 91.3612C15.4827 91.3613 15.6252 91.3542 15.7671 91.3399C15.8752 91.329 15.9825 91.3109 16.0882 91.2857C16.1703 91.2661 16.2506 91.2394 16.3283 91.2061C16.3919 91.178 16.4533 91.145 16.5119 91.1074L14.2031 91.0842ZM20.1142 91.0197C20.094 90.9704 20.0445 90.9272 19.9678 90.8907C19.8737 90.8483 19.775 90.817 19.6737 90.7975C19.536 90.7699 19.3966 90.7511 19.2564 90.7414C19.098 90.7292 18.9232 90.7235 18.7318 90.7243C18.585 90.7238 18.4383 90.7314 18.2923 90.7472C18.1847 90.759 18.0781 90.7784 17.9732 90.8053C17.8939 90.8256 17.817 90.8542 17.7437 90.8907C17.683 90.9216 17.6242 90.9563 17.5678 90.9945L20.1142 91.0197Z" fill="#FCB048"/>
<path d="M17.4385 90.0001C13.8949 90.0001 10.2054 90.3132 9.61499 90.9197C9.63785 90.941 9.6593 90.9637 9.6792 90.9878C10.1768 90.567 13.2234 90.143 17.4381 90.143C21.7611 90.143 24.8568 90.5889 25.2314 91.0203C25.2499 90.9965 25.2698 90.9739 25.2911 90.9526C24.8038 90.3248 21.0449 90.0001 17.4385 90.0001Z" fill="url(#paint22_linear_260_33555)"/>
<path d="M7.28076 89.0641V90.8346C7.28076 91.4069 10.8387 91.8706 15.2281 91.8706C19.6176 91.8706 23.1752 91.4069 23.1752 90.8346V89.0641H7.28076Z" fill="url(#paint23_linear_260_33555)"/>
<path d="M23.1752 89.0641C23.1752 89.6364 19.6172 90.1001 15.2281 90.1001C10.839 90.1001 7.28076 89.6364 7.28076 89.0641C7.28076 88.4918 10.8387 88.0284 15.2281 88.0284C19.6176 88.0284 23.1752 88.4921 23.1752 89.0641Z" fill="url(#paint24_linear_260_33555)"/>
<path d="M15.2281 90.1713C11.3407 90.1713 7.27588 89.7986 7.27588 89.0793C7.27588 89.0399 7.29001 88.9703 7.32949 88.9703C7.36898 88.9703 7.35164 89.0248 7.35164 89.0641C7.35164 89.5204 10.5863 90.0285 15.2281 90.0285C19.8698 90.0285 23.1042 89.5204 23.1042 89.0641C23.1042 89.0248 23.1109 88.9877 23.1501 88.9877C23.1893 88.9877 23.18 89.0406 23.18 89.0799C23.18 89.7993 19.1148 90.1713 15.2281 90.1713Z" fill="url(#paint25_linear_260_33555)"/>
<path d="M14.477 89.1218C14.5551 89.0676 14.6383 89.0139 14.7267 88.9606C14.8345 88.8994 14.9492 88.8514 15.0683 88.8174C15.2398 88.7685 15.415 88.7337 15.5922 88.7136C15.8527 88.6836 16.1147 88.6694 16.3768 88.671C16.6839 88.6693 16.9723 88.6791 17.242 88.7004C17.4807 88.7173 17.7182 88.7489 17.9531 88.7949C18.1251 88.8267 18.2928 88.8789 18.4526 88.9506C18.581 89.0125 18.6564 89.0831 18.6808 89.1631L19.5755 89.1721C19.6332 89.1717 19.6907 89.1771 19.7473 89.1882C19.7974 89.1982 19.8214 89.2111 19.8214 89.2269V89.3011L18.6712 89.2898C18.6307 89.3805 18.5279 89.4635 18.3627 89.5387C18.1598 89.626 17.9484 89.6915 17.7319 89.7341L17.3145 89.6755C17.2831 89.6712 17.2521 89.6639 17.2221 89.6535C17.1977 89.6448 17.1861 89.6351 17.1861 89.6245C17.1861 89.6139 17.2182 89.5942 17.2824 89.5758C17.3466 89.5574 17.4205 89.5349 17.502 89.5081C17.5839 89.4807 17.6641 89.4484 17.7421 89.4114C17.8073 89.3859 17.8625 89.3398 17.8994 89.2801L15.1842 89.253C15.1071 89.3092 15.0271 89.3611 14.9444 89.4085C14.8327 89.4685 14.7141 89.5146 14.5912 89.5458C14.4121 89.5926 14.2296 89.6258 14.0455 89.6451C13.7718 89.6732 13.4968 89.6866 13.2217 89.6854C12.9726 89.6854 12.7306 89.6771 12.493 89.6571C12.2802 89.6414 12.0686 89.6119 11.8596 89.5687C11.703 89.5377 11.5506 89.4877 11.406 89.4197C11.2885 89.3604 11.2224 89.2908 11.2086 89.2153L10.4702 89.2079C10.4119 89.2082 10.3536 89.203 10.2962 89.1924C10.2455 89.1824 10.2195 89.1695 10.2195 89.1531V89.0789L11.2266 89.0886C11.2712 89.0106 11.3623 88.9429 11.502 88.8848C11.6678 88.8191 11.8387 88.7674 12.0131 88.7304L12.3505 88.7771C12.4529 88.7913 12.5039 88.8094 12.5039 88.8277C12.5039 88.8384 12.4834 88.8513 12.4397 88.8668C12.3961 88.8822 12.3466 88.9009 12.2885 88.9225C12.2309 88.944 12.1748 88.9694 12.1206 88.9986C12.0729 89.0219 12.031 89.0556 11.998 89.0973L14.477 89.1218ZM11.9922 89.2227C12.0206 89.2791 12.0679 89.3235 12.1257 89.3482C12.2073 89.3881 12.2936 89.4173 12.3826 89.4349C12.4959 89.4593 12.6108 89.476 12.7264 89.4849C12.8548 89.4954 12.9888 89.5004 13.1283 89.4997C13.2709 89.5001 13.4134 89.4931 13.5553 89.4788C13.6628 89.4676 13.7695 89.4494 13.8747 89.4243C13.9569 89.4046 14.0372 89.378 14.1148 89.3446C14.1788 89.3167 14.2405 89.2838 14.2994 89.2463L11.9922 89.2227ZM17.9033 89.1566C17.8831 89.1073 17.8336 89.0644 17.7569 89.0277C17.6629 88.9851 17.5642 88.9538 17.4628 88.9345C17.3251 88.9065 17.1857 88.8877 17.0455 88.878C16.8873 88.8658 16.7125 88.8601 16.5209 88.861C16.3742 88.8607 16.2274 88.8683 16.0815 88.8838C15.9738 88.8956 15.8672 88.9151 15.7624 88.9422C15.683 88.9623 15.6061 88.9908 15.5328 89.0273C15.4721 89.0584 15.4133 89.0931 15.3569 89.1315L17.9033 89.1566Z" fill="#FCB048"/>
<path d="M15.2304 88.1403C11.6869 88.1403 7.99735 88.4537 7.40698 89.0599C7.42992 89.0812 7.45137 89.104 7.47119 89.1282C7.96878 88.7071 11.0153 88.2835 15.2301 88.2835C19.5531 88.2835 22.6488 88.7294 23.0237 89.1605C23.0421 89.1368 23.0619 89.1142 23.0831 89.0931C22.5945 88.4653 18.8356 88.1403 15.2304 88.1403Z" fill="url(#paint26_linear_260_33555)"/>
<path d="M9.18701 87.2101V88.9806C9.18701 89.5526 12.7453 90.0163 17.1344 90.0163C21.5235 90.0163 25.0818 89.5526 25.0818 88.9806V87.2101H9.18701Z" fill="url(#paint27_linear_260_33555)"/>
<path d="M25.0818 87.2101C25.0818 87.7821 21.5235 88.2457 17.1344 88.2457C12.7453 88.2457 9.18701 87.7821 9.18701 87.2101C9.18701 86.6381 12.7453 86.1741 17.1344 86.1741C21.5235 86.1741 25.0818 86.6377 25.0818 87.2101Z" fill="url(#paint28_linear_260_33555)"/>
<path d="M17.1342 88.3174C13.2469 88.3174 9.18237 87.9443 9.18237 87.2252C9.18237 87.1856 9.19618 87.1162 9.23566 87.1162C9.27515 87.1162 9.25814 87.1704 9.25814 87.2101C9.25814 87.666 12.4928 88.1745 17.1342 88.1745C21.7757 88.1745 25.0104 87.666 25.0104 87.2101C25.0104 87.1704 25.0171 87.1333 25.0563 87.1333C25.0954 87.1333 25.0861 87.1862 25.0861 87.2256C25.0858 87.9449 21.0213 88.3174 17.1342 88.3174Z" fill="url(#paint29_linear_260_33555)"/>
<path d="M16.3834 87.2678C16.4611 87.2136 16.5444 87.1599 16.6332 87.1066C16.7409 87.0456 16.8555 86.9976 16.9744 86.9637C17.1459 86.9146 17.3212 86.8798 17.4983 86.8596C17.7588 86.8299 18.0208 86.8157 18.2829 86.817C18.5901 86.8155 18.8784 86.8253 19.1481 86.8464C19.387 86.8632 19.6245 86.8949 19.8595 86.9412C20.0315 86.9729 20.199 87.025 20.3587 87.0966C20.4871 87.1585 20.5632 87.2293 20.587 87.3091L21.482 87.3181C21.5395 87.3179 21.5969 87.3233 21.6534 87.3342C21.7035 87.3445 21.7276 87.3574 21.7276 87.3729V87.4471L20.5773 87.4358C20.5369 87.5267 20.434 87.6097 20.2688 87.6847C20.066 87.772 19.8545 87.8374 19.638 87.8801L19.2207 87.8217C19.1892 87.8174 19.1582 87.81 19.1282 87.7995C19.1041 87.7908 19.0923 87.7811 19.0923 87.7708C19.0923 87.7605 19.1244 87.7385 19.1886 87.7221C19.2528 87.7057 19.3263 87.6812 19.4078 87.6541C19.4897 87.6266 19.5699 87.5943 19.648 87.5573C19.7132 87.5317 19.7684 87.4857 19.8056 87.4261L17.09 87.399C17.013 87.4553 16.933 87.5072 16.8502 87.5544C16.7385 87.6145 16.6199 87.6607 16.4971 87.6918C16.3179 87.7387 16.1355 87.7719 15.9513 87.7911C15.6776 87.8192 15.4026 87.8326 15.1275 87.8314C14.8784 87.8314 14.6364 87.8233 14.3991 87.803C14.1866 87.7865 13.9754 87.7564 13.7667 87.7127C13.61 87.6816 13.4577 87.6315 13.3131 87.5635C13.1956 87.5041 13.1295 87.4361 13.1157 87.3594L12.3792 87.3516C12.3208 87.3519 12.2624 87.3467 12.2049 87.3361C12.1542 87.3265 12.1285 87.3132 12.1282 87.2968V87.223L13.1356 87.2326C13.1802 87.1546 13.2714 87.0866 13.4107 87.0289C13.5764 86.9628 13.7475 86.9111 13.9221 86.8744L14.2595 86.9208C14.3619 86.9353 14.4126 86.9531 14.4126 86.9715C14.4126 86.9821 14.3921 86.995 14.3484 87.0105L14.1972 87.0663C14.1396 87.0878 14.0835 87.1133 14.0293 87.1424C13.9817 87.1657 13.9398 87.1994 13.9067 87.241L16.3834 87.2678ZM13.8983 87.3687C13.9268 87.4251 13.9742 87.4695 14.0322 87.4941C14.1138 87.5338 14.2001 87.5629 14.289 87.5809C14.4027 87.6052 14.5179 87.6218 14.6338 87.6305C14.7622 87.6411 14.8963 87.6461 15.0361 87.6457C15.1785 87.6458 15.3209 87.6387 15.4627 87.6244C15.5702 87.6131 15.6769 87.595 15.7821 87.5702C15.8642 87.5504 15.9446 87.5236 16.0223 87.4903C16.0859 87.4624 16.1473 87.4295 16.2059 87.3919L13.8983 87.3687ZM19.8094 87.3023C19.7892 87.2533 19.7401 87.2101 19.6634 87.1733C19.5691 87.1309 19.4704 87.0997 19.369 87.0801C19.2312 87.0523 19.0918 87.0335 18.9516 87.0237C18.7935 87.0114 18.6186 87.0059 18.4271 87.0069C18.2804 87.0063 18.1338 87.014 17.9879 87.0298C17.8802 87.0413 17.7734 87.0607 17.6685 87.0879C17.5893 87.1082 17.5123 87.1367 17.439 87.173C17.3783 87.2041 17.3195 87.2389 17.263 87.2771L19.8094 87.3023Z" fill="#FCB048"/>
<path d="M17.1352 86.2863C13.5917 86.2863 9.90214 86.5994 9.31177 87.2055C9.33463 87.2269 9.35608 87.2497 9.37597 87.2739C9.87357 86.8528 12.9201 86.4291 17.1349 86.4291C21.4579 86.4291 24.5536 86.8751 24.9285 87.3065C24.9468 87.2826 24.9666 87.2599 24.9879 87.2388C24.5006 86.611 20.7417 86.2863 17.1352 86.2863Z" fill="url(#paint30_linear_260_33555)"/>
<path d="M10.344 85.3502V87.1207C10.344 87.6928 13.902 88.1567 18.2911 88.1567C22.6802 88.1567 26.2384 87.6928 26.2384 87.1207V85.3502H10.344Z" fill="url(#paint31_linear_260_33555)"/>
<path d="M18.2914 86.3862C22.6806 86.3862 26.2387 85.9224 26.2387 85.3502C26.2387 84.7781 22.6806 84.3142 18.2914 84.3142C13.9022 84.3142 10.344 84.7781 10.344 85.3502C10.344 85.9224 13.9022 86.3862 18.2914 86.3862Z" fill="url(#paint32_linear_260_33555)"/>
<path d="M18.291 86.4575C14.404 86.4575 10.3391 86.0848 10.3391 85.3654C10.3391 85.3257 10.3532 85.2564 10.3924 85.2564C10.4316 85.2564 10.4149 85.3109 10.4149 85.3502C10.4149 85.8065 13.6496 86.3147 18.291 86.3147C22.9324 86.3147 26.1671 85.8065 26.1671 85.3502C26.1671 85.3109 26.1738 85.2738 26.2133 85.2738C26.2528 85.2738 26.2432 85.3264 26.2432 85.366C26.2432 86.0864 22.1783 86.4575 18.291 86.4575Z" fill="url(#paint33_linear_260_33555)"/>
<path d="M17.5417 85.4093C17.6197 85.3551 17.7022 85.3016 17.7915 85.248C17.8993 85.1872 18.0138 85.1392 18.1327 85.1052C18.3042 85.0563 18.4795 85.0214 18.6566 85.0011C18.9172 84.9714 19.1793 84.9572 19.4415 84.9585C19.7489 84.9572 20.0372 84.9671 20.3064 84.9881C20.5452 85.0051 20.7828 85.0366 21.0178 85.0826C21.1899 85.1143 21.3576 85.1666 21.5173 85.2384C21.6457 85.3001 21.7218 85.3709 21.7456 85.4509L22.6403 85.4599C22.6978 85.4595 22.7552 85.4647 22.8117 85.4757C22.8618 85.486 22.8862 85.4989 22.8862 85.5147V85.5886L21.7356 85.5776C21.6955 85.6682 21.5924 85.7511 21.4274 85.8262C21.2246 85.9136 21.0132 85.9792 20.7966 86.0219L20.3793 85.9632C20.3477 85.9588 20.3167 85.9515 20.2865 85.9413C20.2624 85.9323 20.2509 85.9229 20.2505 85.9123C20.2502 85.9017 20.2826 85.882 20.3468 85.8636C20.411 85.8452 20.4849 85.8227 20.5664 85.7959C20.6481 85.7683 20.7282 85.736 20.8062 85.6992C20.8715 85.6734 20.9267 85.6273 20.9639 85.5676L18.248 85.5415C18.1709 85.5976 18.0908 85.6495 18.0081 85.6969C17.8964 85.7568 17.7778 85.8029 17.655 85.8343C17.4758 85.8809 17.2934 85.914 17.1093 85.9333C16.8355 85.9616 16.5604 85.9752 16.2852 85.9739C16.0364 85.9739 15.794 85.9655 15.5568 85.9455C15.3444 85.9289 15.1332 85.8987 14.9247 85.8549C14.768 85.8238 14.6157 85.7738 14.471 85.7059C14.3531 85.6466 14.2873 85.5785 14.2736 85.5015L13.5369 85.4938C13.4785 85.4939 13.4203 85.4889 13.3629 85.4786C13.3121 85.4686 13.2861 85.4554 13.2861 85.4393V85.3651L14.2932 85.3748C14.3378 85.2967 14.429 85.2287 14.5686 85.171C14.7343 85.1051 14.9053 85.0534 15.0797 85.0165L15.4171 85.063C15.5196 85.0774 15.5708 85.0943 15.5706 85.1139C15.5706 85.1242 15.5497 85.1374 15.5064 85.1529L15.3552 85.2084C15.2978 85.2302 15.2418 85.2556 15.1876 85.2845C15.1398 85.3077 15.0979 85.3414 15.065 85.3832L17.5417 85.4093ZM15.0566 85.5102C15.0852 85.5665 15.1326 85.6109 15.1905 85.6356C15.2721 85.6754 15.3584 85.7045 15.4473 85.7224C15.5611 85.7468 15.6764 85.7635 15.7924 85.7724C15.9208 85.7831 16.0548 85.788 16.1943 85.7872C16.3369 85.7876 16.4794 85.7805 16.6213 85.7659C16.7294 85.755 16.8366 85.7369 16.9423 85.7117C17.0245 85.6921 17.1048 85.6655 17.1825 85.6321C17.2459 85.6046 17.3072 85.5722 17.3658 85.5353L15.0566 85.5102ZM20.968 85.4441C20.9478 85.3948 20.8984 85.3516 20.8216 85.3151C20.7275 85.2724 20.6287 85.241 20.5273 85.2216C20.3895 85.1939 20.2501 85.1752 20.1099 85.1655C19.952 85.1532 19.7772 85.1475 19.5857 85.1484C19.4389 85.148 19.2922 85.1556 19.1462 85.1713C19.0385 85.1831 18.9317 85.2026 18.8268 85.2297C18.7476 85.2498 18.6707 85.2783 18.5976 85.3148C18.5367 85.3456 18.478 85.3804 18.4216 85.4189L20.968 85.4441Z" fill="#FCB048"/>
<path d="M18.2922 84.4265C14.7487 84.4265 11.0588 84.7395 10.4688 85.346C10.4916 85.3673 10.5131 85.39 10.533 85.4141C11.0302 84.9933 14.0771 84.5693 18.2919 84.5693C22.6149 84.5693 25.7102 85.0152 26.0852 85.4466C26.1037 85.4229 26.1235 85.4003 26.1446 85.3789C25.6576 84.7511 21.8986 84.4265 18.2922 84.4265Z" fill="url(#paint34_linear_260_33555)"/>
<path d="M9.48999 83.3456V85.1158C9.48999 85.6882 13.0479 86.1518 17.4374 86.1518C21.8268 86.1518 25.3844 85.6882 25.3844 85.1158V83.3456H9.48999Z" fill="url(#paint35_linear_260_33555)"/>
<path d="M25.3844 83.3456C25.3844 83.9176 21.8265 84.3813 17.4374 84.3813C13.0483 84.3813 9.48999 83.916 9.48999 83.3456C9.48999 82.7752 13.0479 82.3096 17.4374 82.3096C21.8268 82.3096 25.3844 82.7717 25.3844 83.3456Z" fill="url(#paint36_linear_260_33555)"/>
<path d="M17.4373 84.4513C13.55 84.4513 9.48511 84.0782 9.48511 83.3588C9.48511 83.3195 9.49923 83.2502 9.53872 83.2502C9.57821 83.2502 9.56087 83.3044 9.56087 83.344C9.56087 83.7999 12.7956 84.3081 17.4373 84.3081C22.079 84.3081 25.3134 83.7999 25.3134 83.344C25.3134 83.3044 25.3202 83.2673 25.3593 83.2673C25.3985 83.2673 25.3892 83.3201 25.3892 83.3595C25.3892 84.0788 21.3243 84.4513 17.4373 84.4513Z" fill="url(#paint37_linear_260_33555)"/>
<path d="M16.6861 83.4017C16.7641 83.3472 16.8466 83.294 16.9359 83.2405C17.0437 83.1795 17.1584 83.1315 17.2775 83.0977C17.449 83.0486 17.6242 83.0137 17.8014 82.9935C18.0618 82.9638 18.3238 82.9496 18.586 82.9509C18.8933 82.9492 19.1822 82.959 19.4527 82.9803C19.6915 82.9972 19.9289 83.0288 20.1638 83.0748C20.3359 83.1067 20.5035 83.159 20.6633 83.2305C20.7918 83.2924 20.8669 83.3633 20.8916 83.443L21.7863 83.452C21.8439 83.4518 21.9014 83.4572 21.958 83.4681C22.0078 83.4785 22.0322 83.4914 22.0322 83.5068V83.581L20.8804 83.5713C20.8399 83.662 20.7371 83.745 20.5718 83.8203C20.369 83.9075 20.1576 83.973 19.941 84.0157L19.5237 83.957C19.4922 83.9529 19.4612 83.9456 19.4312 83.9351C19.4068 83.9263 19.3953 83.9167 19.3953 83.906C19.3953 83.8954 19.4274 83.8757 19.4916 83.8577C19.5558 83.8396 19.6296 83.8167 19.7112 83.7896C19.793 83.7622 19.8732 83.7299 19.9513 83.6929C20.0165 83.6674 20.0717 83.6213 20.1086 83.5617L17.3933 83.5346C17.3164 83.5908 17.2363 83.6427 17.1535 83.69C17.0418 83.75 16.9232 83.7962 16.8004 83.8274C16.6212 83.8741 16.4388 83.9073 16.2547 83.9267C15.981 83.9547 15.706 83.9682 15.4309 83.967C15.1818 83.967 14.9397 83.9589 14.7022 83.9386C14.4898 83.9221 14.2786 83.8919 14.0701 83.8483C13.9134 83.8172 13.7611 83.7671 13.6165 83.699C13.499 83.6397 13.4328 83.5717 13.419 83.4946L12.6807 83.4872C12.6223 83.4874 12.5641 83.4822 12.5067 83.4717C12.4559 83.462 12.4299 83.4488 12.4299 83.4324V83.3585L13.437 83.3679C13.4816 83.2902 13.5728 83.2221 13.7124 83.1641C13.8782 83.0983 14.0492 83.0467 14.2235 83.0096L14.5609 83.0564C14.6634 83.0708 14.7146 83.0877 14.7144 83.107C14.7144 83.1176 14.6938 83.1305 14.6502 83.146C14.6065 83.1615 14.5571 83.1802 14.499 83.2018C14.4413 83.2233 14.3852 83.2487 14.3311 83.2779C14.2834 83.3012 14.2415 83.3349 14.2084 83.3766L16.6861 83.4017ZM14.2014 83.5023C14.2297 83.5587 14.277 83.6031 14.3349 83.6278C14.4165 83.6677 14.5028 83.6969 14.5917 83.7148C14.7054 83.739 14.8206 83.7556 14.9365 83.7645C15.0649 83.7752 15.1989 83.7802 15.3384 83.7793C15.481 83.7797 15.6235 83.7727 15.7654 83.7583C15.8735 83.7472 15.9807 83.729 16.0864 83.7039C16.1686 83.6842 16.2489 83.6576 16.3266 83.6242C16.3902 83.5968 16.4516 83.5644 16.5102 83.5275L14.2014 83.5023ZM20.1125 83.4362C20.0922 83.3872 20.0428 83.344 19.9661 83.3072C19.872 83.2647 19.7733 83.2334 19.672 83.2141C19.5343 83.1861 19.3949 83.1673 19.2547 83.1576C19.0963 83.1454 18.9214 83.1397 18.7301 83.1405C18.5833 83.1403 18.4366 83.1479 18.2906 83.1634C18.183 83.1752 18.0764 83.1947 17.9715 83.2218C17.8923 83.2421 17.8154 83.2707 17.742 83.3069C17.6813 83.338 17.6225 83.3727 17.5661 83.4111L20.1125 83.4362Z" fill="#FCB048"/>
<path d="M17.4385 82.4202C13.8949 82.4202 10.2054 82.7333 9.61499 83.3395C9.63785 83.3609 9.6593 83.3837 9.6792 83.4079C10.1768 82.9867 13.2234 82.5631 17.4381 82.5631C21.7611 82.5631 24.8568 83.009 25.2314 83.4401C25.2499 83.4164 25.2699 83.3939 25.2911 83.3727C24.8038 82.7449 21.0449 82.4202 17.4385 82.4202Z" fill="url(#paint38_linear_260_33555)"/>
<path d="M7.28076 81.4842V83.2547C7.28076 83.8267 10.8387 84.2904 15.2281 84.2904C19.6176 84.2904 23.1752 83.8267 23.1752 83.2547V81.4842H7.28076Z" fill="url(#paint39_linear_260_33555)"/>
<path d="M15.2281 82.5202C19.6174 82.5202 23.1755 82.0563 23.1755 81.4842C23.1755 80.912 19.6174 80.4482 15.2281 80.4482C10.8389 80.4482 7.28076 80.912 7.28076 81.4842C7.28076 82.0563 10.8389 82.5202 15.2281 82.5202Z" fill="url(#paint40_linear_260_33555)"/>
<path d="M15.2281 82.5915C11.3407 82.5915 7.27588 82.2187 7.27588 81.4993C7.27588 81.4597 7.29001 81.3904 7.32949 81.3904C7.36898 81.3904 7.35164 81.4445 7.35164 81.4842C7.35164 81.9404 10.5863 82.4486 15.2281 82.4486C19.8698 82.4486 23.1042 81.9404 23.1042 81.4842C23.1042 81.4445 23.1109 81.4078 23.1501 81.4078C23.1893 81.4078 23.18 81.4603 23.18 81.5C23.18 82.219 19.1148 82.5915 15.2281 82.5915Z" fill="url(#paint41_linear_260_33555)"/>
<path d="M14.4769 81.5419C14.555 81.4877 14.6383 81.434 14.7267 81.3807C14.8345 81.3198 14.9492 81.2718 15.0682 81.2378C15.2398 81.1889 15.415 81.1541 15.5921 81.1337C15.8526 81.104 16.1146 81.0898 16.3767 81.0911C16.6839 81.0898 16.9722 81.0997 17.2419 81.1208C17.4806 81.1377 17.7181 81.1693 17.953 81.2152C18.125 81.247 18.2927 81.2991 18.4525 81.3707C18.5809 81.4326 18.6564 81.5035 18.6808 81.5832L19.5755 81.5925C19.6331 81.592 19.6906 81.5973 19.7472 81.6083C19.7973 81.6186 19.8214 81.6315 19.8214 81.6473V81.7212L18.6711 81.7102C18.6307 81.8009 18.5278 81.8838 18.3626 81.9588C18.1598 82.0462 17.9484 82.1117 17.7318 82.1542L17.3145 82.0958C17.283 82.0915 17.2521 82.0841 17.222 82.0739C17.1976 82.0649 17.1861 82.0552 17.1861 82.0449C17.1861 82.0346 17.2182 82.0143 17.2824 81.9962C17.3466 81.9781 17.4204 81.9553 17.5019 81.9282C17.5838 81.9013 17.664 81.8695 17.7421 81.833C17.8072 81.8073 17.8624 81.7612 17.8994 81.7015L15.1841 81.6744C15.1071 81.7307 15.0271 81.7826 14.9443 81.8298C14.8326 81.8899 14.714 81.9361 14.5912 81.9675C14.412 82.0142 14.2296 82.0472 14.0454 82.0665C13.7718 82.0948 13.4968 82.1084 13.2217 82.1071C12.9726 82.1071 12.7305 82.0987 12.4929 82.0787C12.2805 82.062 12.0694 82.0317 11.8608 81.9881C11.7042 81.9571 11.5518 81.9069 11.4072 81.8389C11.2897 81.7798 11.2236 81.7118 11.2098 81.6347L10.4714 81.627C10.4131 81.6272 10.3549 81.6221 10.2974 81.6119C10.2467 81.6019 10.2207 81.5886 10.2207 81.5722V81.4984L11.2278 81.508C11.2724 81.43 11.3636 81.362 11.5032 81.3042C11.6689 81.2384 11.8399 81.1867 12.0143 81.1498L12.3517 81.1962C12.4541 81.2107 12.5051 81.2285 12.5051 81.2472C12.5051 81.2575 12.4846 81.2704 12.4409 81.2862C12.3973 81.302 12.3478 81.3184 12.2897 81.3417C12.2321 81.3632 12.1761 81.3887 12.1218 81.4177C12.0741 81.441 12.0322 81.4748 11.9992 81.5164L14.4769 81.5419ZM11.9921 81.6428C12.0206 81.6991 12.0679 81.7435 12.1257 81.7682C12.2073 81.808 12.2936 81.8372 12.3825 81.855C12.4962 81.8793 12.6114 81.896 12.7273 81.905C12.8557 81.9155 12.9897 81.9204 13.1292 81.9198C13.2718 81.9199 13.4143 81.9128 13.5562 81.8985C13.6637 81.8876 13.7704 81.8695 13.8756 81.8443C13.9578 81.8247 14.0381 81.7981 14.1157 81.7647C14.1794 81.7366 14.2408 81.7036 14.2994 81.666L11.9921 81.6428ZM17.9032 81.5767C17.883 81.5274 17.8336 81.4842 17.7568 81.4477C17.6628 81.4053 17.5641 81.374 17.4628 81.3545C17.325 81.3269 17.1856 81.3081 17.0454 81.2984C16.8873 81.2862 16.7124 81.2805 16.5209 81.2814C16.3741 81.2808 16.2274 81.2884 16.0814 81.3042C15.9738 81.316 15.8672 81.3354 15.7623 81.3623C15.683 81.3826 15.6061 81.4112 15.5328 81.4477C15.472 81.4787 15.4133 81.5133 15.3568 81.5516L17.9032 81.5767Z" fill="#FCB048"/>
<path d="M15.2304 80.5604C11.6869 80.5604 7.99735 80.8734 7.40698 81.48C7.42984 81.5012 7.45129 81.5239 7.47119 81.548C7.96878 81.1272 11.0153 80.7032 15.2301 80.7032C19.5531 80.7032 22.6488 81.1491 23.0237 81.5806C23.042 81.5567 23.0618 81.534 23.0831 81.5128C22.5945 80.8851 18.8356 80.5604 15.2304 80.5604Z" fill="url(#paint42_linear_260_33555)"/>
<path d="M9.18701 79.6298V81.4003C9.18701 81.9723 12.7453 82.4363 17.1344 82.4363C21.5235 82.4363 25.0818 81.9723 25.0818 81.4003V79.6298H9.18701Z" fill="url(#paint43_linear_260_33555)"/>
<path d="M17.1344 80.6658C21.5236 80.6658 25.0818 80.202 25.0818 79.6298C25.0818 79.0576 21.5236 78.5938 17.1344 78.5938C12.7452 78.5938 9.18701 79.0576 9.18701 79.6298C9.18701 80.202 12.7452 80.6658 17.1344 80.6658Z" fill="url(#paint44_linear_260_33555)"/>
<path d="M17.1342 80.7371C13.2469 80.7371 9.18237 80.3643 9.18237 79.645C9.18237 79.6057 9.19618 79.536 9.23566 79.536C9.27515 79.536 9.25814 79.5905 9.25814 79.6298C9.25814 80.0861 12.4928 80.5942 17.1342 80.5942C21.7757 80.5942 25.0104 80.0861 25.0104 79.6298C25.0104 79.5905 25.0171 79.5534 25.0563 79.5534C25.0954 79.5534 25.0861 79.606 25.0861 79.6456C25.0858 80.365 21.0213 80.7371 17.1342 80.7371Z" fill="url(#paint45_linear_260_33555)"/>
<path d="M16.3834 79.6876C16.4611 79.6334 16.5444 79.5796 16.6332 79.5263C16.7409 79.4652 16.8554 79.4172 16.9744 79.3832C17.1459 79.3342 17.3212 79.2995 17.4983 79.2793C17.7588 79.2494 18.0208 79.2352 18.2829 79.2368C18.5901 79.2353 18.8784 79.2451 19.1481 79.2661C19.3869 79.2831 19.6245 79.3146 19.8595 79.3606C20.0315 79.3922 20.1991 79.4445 20.3587 79.5163C20.4871 79.5782 20.5632 79.6491 20.587 79.7288L21.482 79.7379C21.5395 79.7376 21.5969 79.7429 21.6534 79.7537C21.7035 79.764 21.7276 79.7769 21.7276 79.7927V79.8668L20.5773 79.8555C20.5369 79.9463 20.434 80.0291 20.2688 80.1041C20.0661 80.1917 19.8546 80.2573 19.638 80.2999L19.2207 80.2412C19.1892 80.2369 19.1582 80.2296 19.1282 80.2193C19.1041 80.2105 19.0923 80.2009 19.0923 80.1902C19.0923 80.1796 19.1244 80.1599 19.1886 80.1415C19.2528 80.1232 19.3263 80.1006 19.4078 80.0738C19.4896 80.0462 19.5698 80.014 19.648 79.9771C19.7131 79.9514 19.7684 79.9054 19.8056 79.8459L17.09 79.8188C17.0129 79.8749 16.9329 79.9268 16.8502 79.9742C16.7385 80.0343 16.6199 80.0804 16.4971 80.1116C16.3179 80.1582 16.1354 80.1913 15.9513 80.2105C15.6776 80.2389 15.4027 80.2525 15.1275 80.2512C14.8784 80.2512 14.6364 80.2428 14.3991 80.2228C14.1866 80.2062 13.9754 80.176 13.7667 80.1322C13.6101 80.101 13.4578 80.051 13.3131 79.9832C13.1956 79.9239 13.1295 79.8559 13.1157 79.7788L12.3792 79.7714C12.3208 79.7715 12.2624 79.7663 12.2049 79.7559C12.1542 79.7459 12.1285 79.733 12.1282 79.7166V79.6424L13.1356 79.6521C13.1802 79.5741 13.2714 79.506 13.4107 79.4483C13.5765 79.3825 13.7476 79.3309 13.9221 79.2939L14.2595 79.3403C14.3619 79.3548 14.4126 79.3725 14.4126 79.3912C14.4126 79.4016 14.3921 79.4148 14.3484 79.4302C14.3047 79.4457 14.2553 79.4644 14.1972 79.486C14.1396 79.5075 14.0835 79.5328 14.0293 79.5618C13.9817 79.5852 13.9398 79.6189 13.9067 79.6605L16.3834 79.6876ZM13.8983 79.7885C13.9267 79.8449 13.9742 79.8894 14.0322 79.9139C14.1137 79.9538 14.2 79.983 14.289 80.0006C14.4027 80.0251 14.5179 80.0418 14.6338 80.0506C14.7622 80.0612 14.8963 80.0661 15.0361 80.0655C15.1785 80.0658 15.3209 80.0588 15.4627 80.0445C15.5702 80.0333 15.6769 80.0151 15.7821 79.99C15.8643 79.9704 15.9446 79.9437 16.0223 79.9104C16.0859 79.8823 16.1473 79.8494 16.2059 79.812L13.8983 79.7885ZM19.8094 79.724C19.7892 79.6747 19.7401 79.6318 19.6634 79.595C19.5693 79.5523 19.4704 79.5211 19.369 79.5018C19.2312 79.4739 19.0918 79.455 18.9516 79.4454C18.7935 79.4331 18.6186 79.4275 18.4271 79.4283C18.2804 79.4281 18.1338 79.4357 17.9879 79.4512C17.8807 79.4627 17.7745 79.4819 17.6701 79.5086C17.5908 79.5287 17.5138 79.5572 17.4406 79.5937C17.3798 79.6247 17.3211 79.6595 17.2646 79.6979L19.8094 79.724Z" fill="#FCB048"/>
<path d="M17.1352 78.706C13.5917 78.706 9.90214 79.0194 9.31177 79.6256C9.33463 79.6469 9.35607 79.6696 9.37597 79.6937C9.87357 79.2745 12.9201 78.8492 17.1349 78.8492C21.4579 78.8492 24.5536 79.2951 24.9285 79.7262C24.9469 79.7025 24.9667 79.6798 24.9879 79.6585C24.5006 79.031 20.7417 78.706 17.1352 78.706Z" fill="url(#paint46_linear_260_33555)"/>
<path d="M8.19531 77.7703V79.5408C8.19531 80.1128 11.7536 80.5765 16.1427 80.5765C20.5318 80.5765 24.0907 80.1128 24.0907 79.5408V77.7703H8.19531Z" fill="url(#paint47_linear_260_33555)"/>
<path d="M16.1429 78.8063C20.5322 78.8063 24.0903 78.3425 24.0903 77.7703C24.0903 77.1981 20.5322 76.7343 16.1429 76.7343C11.7537 76.7343 8.19556 77.1981 8.19556 77.7703C8.19556 78.3425 11.7537 78.8063 16.1429 78.8063Z" fill="url(#paint48_linear_260_33555)"/>
<path d="M16.1428 78.8776C12.2558 78.8776 8.19092 78.5045 8.19092 77.7854C8.19092 77.7458 8.20504 77.6765 8.24421 77.6765C8.28338 77.6765 8.26668 77.7306 8.26668 77.7703C8.26668 78.2262 11.5014 78.7347 16.1428 78.7347C20.7842 78.7347 24.0189 78.2262 24.0189 77.7703C24.0189 77.7306 24.0256 77.6935 24.0651 77.6935C24.1046 77.6935 24.095 77.7464 24.095 77.7858C24.095 78.5051 20.0301 78.8776 16.1428 78.8776Z" fill="url(#paint49_linear_260_33555)"/>
<path d="M15.3909 77.828C15.4689 77.7739 15.5514 77.7203 15.6406 77.6668C15.7484 77.606 15.863 77.558 15.9819 77.524C16.1534 77.4749 16.3286 77.4401 16.5058 77.4198C16.7664 77.3902 17.0285 77.376 17.2907 77.3773C17.5976 77.3755 17.8859 77.3853 18.1556 77.4066C18.3944 77.4235 18.632 77.4551 18.867 77.5014C19.0389 77.5331 19.2065 77.5853 19.3662 77.6568C19.4946 77.7187 19.5707 77.7895 19.5944 77.8693L20.4894 77.8783C20.547 77.8781 20.6044 77.8835 20.6609 77.8944C20.711 77.9048 20.735 77.9177 20.7354 77.9331V78.0073L19.5848 77.996C19.5448 78.0869 19.4419 78.1699 19.2763 78.2449C19.0734 78.3322 18.862 78.3977 18.6455 78.4403L18.2281 78.382C18.1967 78.3776 18.1657 78.3701 18.1357 78.3597C18.1116 78.351 18.0997 78.3413 18.0997 78.331C18.0997 78.3207 18.1318 78.3004 18.196 78.2823C18.2602 78.2643 18.3341 78.2414 18.4153 78.2143C18.4972 78.1869 18.5774 78.1546 18.6554 78.1176C18.7206 78.092 18.7759 78.046 18.813 77.9863L16.0971 77.9609C16.0201 78.0171 15.9401 78.069 15.8573 78.1163C15.7456 78.1763 15.627 78.2224 15.5042 78.2536C15.3251 78.3006 15.1426 78.3338 14.9584 78.3529C14.6848 78.381 14.4098 78.3945 14.1347 78.3932C13.8859 78.3932 13.6435 78.3852 13.4063 78.3649C13.1938 78.3484 12.9825 78.3182 12.7738 78.2746C12.6173 78.2435 12.4651 78.1934 12.3206 78.1253C12.2027 78.066 12.1366 77.9963 12.1231 77.9212L11.3848 77.9135C11.3264 77.9137 11.2682 77.9085 11.2108 77.898C11.1597 77.8883 11.134 77.8751 11.134 77.8587V77.7848L12.1414 77.7945C12.186 77.7165 12.2772 77.6484 12.4169 77.5907C12.5825 77.5246 12.7535 77.4729 12.9279 77.4363L13.2653 77.4827C13.3677 77.4972 13.4185 77.5149 13.4188 77.5333C13.4188 77.544 13.3979 77.5569 13.3546 77.5723L13.2034 77.6281C13.1459 77.6498 13.0899 77.6752 13.0358 77.7042C12.988 77.7275 12.946 77.7612 12.9129 77.8029L15.3909 77.828ZM12.9068 77.9286C12.9353 77.9849 12.9827 78.0293 13.0406 78.054C13.1223 78.0937 13.2086 78.1228 13.2974 78.1408C13.4111 78.1651 13.5263 78.1817 13.6422 78.1904C13.7706 78.201 13.9047 78.206 14.0445 78.2056C14.1871 78.2057 14.3296 78.1986 14.4714 78.1843C14.579 78.1732 14.6857 78.1551 14.7909 78.1301C14.873 78.1103 14.9533 78.0835 15.031 78.0502C15.0946 78.0224 15.1559 77.9895 15.2143 77.9518L12.9068 77.9286ZM18.8182 77.8641C18.798 77.8151 18.7485 77.7719 18.6718 77.7352C18.5776 77.6927 18.4788 77.6615 18.3774 77.642C18.2396 77.6142 18.1002 77.5953 17.9601 77.5856C17.8019 77.5733 17.6272 77.5677 17.4358 77.5688C17.289 77.5682 17.1423 77.5759 16.9963 77.5917C16.8881 77.6031 16.7808 77.6225 16.6753 77.6497C16.5962 77.6701 16.5194 77.6986 16.4461 77.7348C16.3854 77.7659 16.3266 77.8007 16.2702 77.839L18.8182 77.8641Z" fill="#FCB048"/>
<path d="M16.144 76.8465C12.6002 76.8465 8.91061 77.1596 8.32056 77.7658C8.34334 77.7872 8.36478 77.81 8.38476 77.8341C8.88204 77.413 11.9286 76.9893 16.1437 76.9893C20.4667 76.9893 23.562 77.4353 23.937 77.8667C23.9553 77.8429 23.9751 77.8202 23.9964 77.799C23.5094 77.1712 19.7504 76.8465 16.144 76.8465Z" fill="url(#paint50_linear_260_33555)"/>
<path d="M26.3506 79.0185L24.914 80.0445C24.4498 80.3763 26.1362 83.5571 28.6803 87.1494C31.2245 90.7417 33.663 93.3854 34.1272 93.0536L35.5635 92.0276L26.3506 79.0185Z" fill="url(#paint51_linear_260_33555)"/>
<path d="M35.5637 92.0276C35.0995 92.3591 32.661 89.7157 30.1168 86.1234C27.5726 82.5311 25.8866 79.3499 26.3508 79.0185C26.815 78.687 29.2535 81.33 31.7977 84.9227C34.3419 88.5153 36.0279 91.6968 35.5637 92.0276Z" fill="url(#paint52_linear_260_33555)"/>
<path d="M30.0587 86.1647C27.8057 82.9832 25.7521 79.4402 26.3348 79.0233C26.3669 79.0004 26.4311 78.9717 26.4542 79.004C26.4773 79.0362 26.4221 79.0536 26.39 79.0765C26.0198 79.3409 27.4815 82.2828 30.173 86.0818C32.8645 89.8808 35.1489 92.2336 35.5207 91.9692C35.5528 91.9463 35.5865 91.9305 35.6093 91.9625C35.6321 91.9944 35.5839 92.0176 35.5518 92.0405C34.9701 92.4574 32.312 89.3462 30.0587 86.1647Z" fill="url(#paint53_linear_260_33555)"/>
<path d="M30.4751 84.9417C30.5643 84.974 30.6558 85.011 30.7502 85.0533C30.8621 85.1061 30.9673 85.172 31.0638 85.2496C31.2031 85.3616 31.3329 85.4848 31.452 85.6182C31.6272 85.8142 31.7907 86.0205 31.9415 86.236C32.1207 86.4862 32.2798 86.7278 32.4189 86.9608C32.5436 87.1661 32.6556 87.3789 32.7544 87.598C32.8285 87.7571 32.8833 87.9246 32.9178 88.0968C32.9415 88.2372 32.9282 88.3404 32.8777 88.4066L33.3887 89.1444C33.4224 89.1913 33.4515 89.2414 33.4754 89.294C33.496 89.3411 33.4995 89.3682 33.487 89.3775L33.4269 89.4207L32.7691 88.4724C32.6728 88.4921 32.5444 88.456 32.3887 88.3644C32.2003 88.249 32.0246 88.1139 31.8645 87.9614L31.669 87.5844C31.6543 87.5562 31.6423 87.5266 31.6333 87.4961C31.6266 87.4713 31.6276 87.4561 31.6359 87.45C31.6443 87.4438 31.6796 87.4587 31.7322 87.5012C31.7849 87.5438 31.8452 87.5902 31.9142 87.6415C31.9838 87.6926 32.0561 87.7398 32.1309 87.7827C32.1895 87.8212 32.2589 87.8396 32.3287 87.8353L30.7768 85.5972C30.6866 85.5669 30.598 85.5314 30.5117 85.4911C30.3985 85.4347 30.2925 85.3646 30.1961 85.2825C30.054 85.1631 29.9212 85.033 29.7987 84.8933C29.6172 84.6857 29.4468 84.4685 29.2882 84.2427C29.1427 84.0395 29.0096 83.8353 28.8889 83.63C28.7792 83.4466 28.6814 83.2563 28.5961 83.0603C28.5304 82.9141 28.4828 82.7605 28.4542 82.6027C28.4339 82.4718 28.4509 82.3784 28.5052 82.3225L28.0844 81.7154C28.0504 81.6676 28.0209 81.6169 27.9961 81.5638C27.9746 81.5164 27.9704 81.4877 27.9836 81.4781L28.0433 81.4348L28.6211 82.2651C28.71 82.2561 28.8182 82.2918 28.946 82.3722C29.0955 82.4696 29.2366 82.5796 29.3675 82.7011L29.5255 83.0042C29.573 83.0964 29.5897 83.1476 29.573 83.1593C29.5646 83.1654 29.5409 83.1557 29.5049 83.1302C29.469 83.1048 29.4231 83.0738 29.372 83.0387C29.3207 83.0039 29.2671 82.9728 29.2115 82.9455C29.1649 82.9199 29.1133 82.9052 29.0603 82.9023L30.4751 84.9417ZM28.9528 82.9664C28.9236 83.0224 28.915 83.0869 28.9287 83.1486C28.9435 83.2382 28.9697 83.3256 29.0067 83.4085C29.0534 83.5156 29.107 83.6196 29.1672 83.7197C29.2331 83.8306 29.3069 83.9431 29.3884 84.0573C29.4708 84.1742 29.559 84.2867 29.6529 84.3945C29.7242 84.4761 29.8008 84.5529 29.8821 84.6244C29.9457 84.6802 30.0139 84.7305 30.086 84.7747C30.1456 84.8106 30.2078 84.8417 30.2722 84.8679L28.9528 82.9664ZM32.433 87.7663C32.461 87.7211 32.4674 87.6557 32.4529 87.5728C32.4324 87.471 32.4001 87.372 32.3566 87.2778C32.2993 87.1489 32.2337 87.024 32.1602 86.9038C32.0786 86.767 31.9823 86.6207 31.8712 86.4646C31.7865 86.3442 31.6951 86.2286 31.5977 86.1183C31.5259 86.0369 31.4483 85.9608 31.3656 85.8906C31.3034 85.8373 31.2356 85.791 31.1634 85.7523C31.1031 85.7206 31.0409 85.6926 30.9772 85.6685L32.433 87.7663Z" fill="#FCB048"/>
<path d="M31.707 84.9901C29.6524 82.0897 27.2605 79.2506 26.4264 79.1197C26.4225 79.1509 26.4165 79.1819 26.4084 79.2123C27.0383 79.3754 29.1481 81.6231 31.5911 85.0729C34.0971 88.6111 35.5295 91.4031 35.3969 91.9599C35.4268 91.9613 35.4566 91.9644 35.4862 91.9693C35.7118 91.2051 33.7976 87.9401 31.707 84.9901Z" fill="url(#paint54_linear_260_33555)"/>
<path d="M72.8226 88.4808L72.1035 88.5376C71.9172 88.5526 71.7297 88.5448 71.5453 88.5144L68.693 88.0475L68.6464 88.0401L65.3318 87.4968H65.3113L62.7139 87.0744V72.3946H65.3267H65.3318L68.6464 72.56L68.6955 72.5848L72.7045 72.7399L72.8226 88.4808Z" fill="url(#paint55_linear_260_33555)"/>
<path d="M82.9086 73.329V87.0295C82.9098 87.2642 82.8212 87.4904 82.6613 87.6614C82.5014 87.8325 82.2822 87.9355 82.0489 87.9491L72.5358 88.5176C72.1506 88.5404 71.8225 88.2193 71.8225 87.8211V73.5476C71.8225 73.1488 72.1339 72.8183 72.5201 72.806L82.1019 72.5381C82.2071 72.5348 82.3119 72.5528 82.41 72.5912C82.5081 72.6295 82.5975 72.6873 82.6728 72.7612C82.7481 72.835 82.8078 72.9234 82.8483 73.0209C82.8889 73.1185 82.9094 73.2233 82.9086 73.329V73.329Z" fill="url(#paint56_linear_260_33555)"/>
<path d="M62.7341 72.3949L71.8227 72.827L82.1017 72.5393L71.5633 72.1943L62.7341 72.3949Z" fill="url(#paint57_linear_260_33555)"/>
<path style="mix-blend-mode:multiply" opacity="0.3" d="M82.0883 72.5397L74.5843 72.7496C74.3757 72.7579 74.1783 72.847 74.0338 72.9984C73.8893 73.1497 73.8088 73.3515 73.8093 73.5612C73.8093 74.2925 73.9313 75.0479 74.2517 75.777C75.3201 78.2072 77.7079 78.2968 78.2048 80.5275C78.6186 82.386 77.1528 83.1857 76.9978 85.5608C76.9562 86.2386 77.0231 86.9188 77.1958 87.5754C77.2426 87.758 77.3508 87.9188 77.5021 88.0305C77.6534 88.1421 77.8385 88.1978 78.026 88.188L82.1573 87.9413C82.3611 87.9294 82.5527 87.8395 82.6924 87.69C82.8322 87.5405 82.9095 87.3429 82.9085 87.1378V73.3426C82.9091 73.2352 82.8881 73.1288 82.8468 73.0298C82.8055 72.9307 82.7448 72.841 82.6682 72.7661C82.5917 72.6912 82.5009 72.6325 82.4012 72.5936C82.3016 72.5547 82.1952 72.5364 82.0883 72.5397V72.5397Z" fill="url(#paint58_linear_260_33555)"/>
<path d="M75.1572 88.3608L78.6844 88.15V72.6348L75.1572 72.7338V88.3608Z" fill="url(#paint59_linear_260_33555)"/>
<path d="M75.3159 88.3515L78.6845 88.15V72.6348L75.3159 72.7293V88.3515Z" fill="url(#paint60_linear_260_33555)"/>
<path d="M68.5988 72.6058V88.0474L65.3677 87.4967V72.5181L66.3969 72.4984L68.5988 72.6058Z" fill="url(#paint61_linear_260_33555)"/>
<path d="M68.93 72.2543L78.7625 72.8157H75.2276L66.6311 72.3062L68.93 72.2543Z" fill="url(#paint62_linear_260_33555)"/>
<path d="M73.7142 71.78C73.9431 70.3713 74.1107 69.3417 75.0266 68.3908C75.4118 67.99 75.8346 67.5525 76.5261 67.4361C77.3216 67.3026 78.3367 67.6176 78.615 68.2699C78.8792 68.8893 78.2568 69.2934 78.5213 70.005C78.7858 70.7166 79.5611 70.7047 79.6449 71.2825C79.7168 71.7717 79.2414 72.3269 78.7614 72.5871C77.9322 73.0363 77.4616 72.4043 75.8423 72.5062C74.7264 72.5768 74.0824 72.9315 73.7803 72.5736C73.6375 72.4033 73.6516 72.1667 73.7142 71.78Z" fill="url(#paint63_linear_260_33555)"/>
<g style="mix-blend-mode:multiply" opacity="0.3">
<path style="mix-blend-mode:multiply" opacity="0.3" d="M78.1464 71.2286C77.1467 70.8446 76.6343 70.0088 76.1913 70.2065C75.7981 70.3822 76.0382 71.1158 75.5756 71.7129C75.1531 72.2582 74.3785 72.3878 73.6902 72.3881C73.7056 72.4563 73.7369 72.5198 73.7814 72.5735C74.0834 72.9314 74.7274 72.5768 75.8433 72.5062C77.4626 72.4043 77.9332 73.0362 78.7624 72.5871C79.2029 72.3485 79.6382 71.8616 79.6517 71.4047C79.1846 71.4553 78.6655 71.4279 78.1464 71.2286Z" fill="url(#paint64_linear_260_33555)"/>
</g>
<path d="M67.6753 68.297C68.3495 67.7637 69.0558 68.3583 69.8847 67.7724C70.7235 67.1788 70.4799 66.2266 71.13 65.9567C71.8857 65.643 73.0048 66.6 73.5402 67.2075C74.9004 68.7501 75.5393 71.4892 74.4642 72.4527C74.0606 72.8141 72.9181 72.6652 70.649 72.3524C68.0558 71.9948 67.6827 71.7398 67.4346 71.4034C66.7656 70.5003 66.9158 68.9003 67.6753 68.297Z" fill="url(#paint65_linear_260_33555)"/>
<g style="mix-blend-mode:multiply" opacity="0.3">
<path style="mix-blend-mode:multiply" opacity="0.3" d="M71.9335 69.4536C71.5598 69.3349 71.3877 69.7647 70.6211 69.9373C70.4802 69.9695 69.1255 70.2532 68.3986 69.3994C68.1097 69.0605 67.9746 68.6049 67.9903 68.1216C67.8762 68.1617 67.7698 68.2209 67.6754 68.2967C66.9142 68.9 66.7656 70.4999 67.4346 71.4031C67.6828 71.7384 68.0558 71.9944 70.6491 72.352C72.9181 72.6648 74.0606 72.8137 74.4642 72.4523C74.5181 72.4028 74.5679 72.3489 74.6128 72.291C74.067 72.273 73.4972 72.1408 73.085 71.7384C72.2895 70.9639 72.5688 69.6548 71.9335 69.4536Z" fill="url(#paint66_linear_260_33555)"/>
</g>
<path d="M72.0946 72.5451L68.6461 72.6761L65.3267 72.5181L66.3999 72.4984L71.0988 72.4142L72.0946 72.5451Z" fill="url(#paint67_linear_260_33555)"/>
<defs>
<linearGradient id="paint0_linear_260_33555" x1="61.6054" y1="17.4282" x2="78.4582" y2="70.8162" gradientUnits="userSpaceOnUse">
<stop stop-color="#FF9085"/>
<stop offset="1" stop-color="#FB6FBB"/>
</linearGradient>
<linearGradient id="paint1_linear_260_33555" x1="91.8175" y1="25.0294" x2="113.983" y2="-14.9482" gradientUnits="userSpaceOnUse">
<stop stop-color="#E38DDD"/>
<stop offset="1" stop-color="#9571F6"/>
</linearGradient>
<linearGradient id="paint2_linear_260_33555" x1="90.8302" y1="51.0243" x2="53.4966" y2="86.1258" gradientUnits="userSpaceOnUse">
<stop stop-color="#AA80F9"/>
<stop offset="1" stop-color="#6165D7"/>
</linearGradient>
<linearGradient id="paint3_linear_260_33555" x1="161138" y1="579026" x2="236936" y2="680081" gradientUnits="userSpaceOnUse">
<stop stop-color="#E38DDD"/>
<stop offset="1" stop-color="#9571F6"/>
</linearGradient>
<linearGradient id="paint4_linear_260_33555" x1="-65219.9" y1="35078.1" x2="-33456.9" y2="65868.4" gradientUnits="userSpaceOnUse">
<stop stop-color="#FF9085"/>
<stop offset="1" stop-color="#FB6FBB"/>
</linearGradient>
<linearGradient id="paint5_linear_260_33555" x1="15.2585" y1="19.3116" x2="38.8487" y2="18.2904" gradientUnits="userSpaceOnUse">
<stop stop-color="#AB316D"/>
<stop offset="1" stop-color="#792D3D"/>
</linearGradient>
<linearGradient id="paint6_linear_260_33555" x1="12.7929" y1="57.896" x2="34.8559" y2="57.896" gradientUnits="userSpaceOnUse">
<stop stop-color="#FFC444"/>
<stop offset="1" stop-color="#F36F56"/>
</linearGradient>
<linearGradient id="paint7_linear_260_33555" x1="15909.2" y1="131216" x2="23989.9" y2="131216" gradientUnits="userSpaceOnUse">
<stop stop-color="#FFC444"/>
<stop offset="1" stop-color="#F36F56"/>
</linearGradient>
<linearGradient id="paint8_linear_260_33555" x1="91210" y1="101614" x2="161824" y2="227371" gradientUnits="userSpaceOnUse">
<stop stop-color="#FFC444"/>
<stop offset="1" stop-color="#F36F56"/>
</linearGradient>
<linearGradient id="paint9_linear_260_33555" x1="102247" y1="110485" x2="161588" y2="242833" gradientUnits="userSpaceOnUse">
<stop stop-color="#FFC444"/>
<stop offset="1" stop-color="#F36F56"/>
</linearGradient>
<linearGradient id="paint10_linear_260_33555" x1="53305.2" y1="8336.59" x2="44405.6" y2="82509.2" gradientUnits="userSpaceOnUse">
<stop stop-color="#AB316D"/>
<stop offset="1" stop-color="#792D3D"/>
</linearGradient>
<linearGradient id="paint11_linear_260_33555" x1="6645.93" y1="-669.742" x2="2765.68" y2="6172.96" gradientUnits="userSpaceOnUse">
<stop stop-color="#AB316D"/>
<stop offset="1" stop-color="#792D3D"/>
</linearGradient>
<linearGradient id="paint12_linear_260_33555" x1="8845.58" y1="657.326" x2="4965.31" y2="7499.97" gradientUnits="userSpaceOnUse">
<stop stop-color="#AB316D"/>
<stop offset="1" stop-color="#792D3D"/>
</linearGradient>
<linearGradient id="paint13_linear_260_33555" x1="21364.3" y1="81999.8" x2="30241.1" y2="83972" gradientUnits="userSpaceOnUse">
<stop stop-color="#AA80F9"/>
<stop offset="1" stop-color="#6165D7"/>
</linearGradient>
<linearGradient id="paint14_linear_260_33555" x1="55607.3" y1="81959" x2="80107.8" y2="122531" gradientUnits="userSpaceOnUse">
<stop stop-color="#AA80F9"/>
<stop offset="1" stop-color="#6165D7"/>
</linearGradient>
<linearGradient id="paint15_linear_260_33555" x1="21.1549" y1="81.8988" x2="57.8981" y2="93.4512" gradientUnits="userSpaceOnUse">
<stop stop-color="#444B8C"/>
<stop offset="1" stop-color="#26264F"/>
</linearGradient>
<linearGradient id="paint16_linear_260_33555" x1="15623.7" y1="44119.9" x2="26343.7" y2="44333.3" gradientUnits="userSpaceOnUse">
<stop stop-color="#FF9085"/>
<stop offset="1" stop-color="#FB6FBB"/>
</linearGradient>
<linearGradient id="paint17_linear_260_33555" x1="51954.9" y1="61432.2" x2="74384.9" y2="99702.6" gradientUnits="userSpaceOnUse">
<stop stop-color="#AA80F9"/>
<stop offset="1" stop-color="#6165D7"/>
</linearGradient>
<linearGradient id="paint18_linear_260_33555" x1="27666.8" y1="47187.5" x2="38060.8" y2="47187.5" gradientUnits="userSpaceOnUse">
<stop stop-color="#AA80F9"/>
<stop offset="1" stop-color="#6165D7"/>
</linearGradient>
<linearGradient id="paint19_linear_260_33555" x1="8.13108" y1="92.3272" x2="26.4169" y2="92.3272" gradientUnits="userSpaceOnUse">
<stop stop-color="#FCB148"/>
<stop offset="0.05" stop-color="#FDBA46"/>
<stop offset="0.14" stop-color="#FFC244"/>
<stop offset="0.32" stop-color="#FFC444"/>
<stop offset="0.48" stop-color="#FDB946"/>
<stop offset="0.78" stop-color="#F99C4D"/>
<stop offset="0.87" stop-color="#F8924F"/>
<stop offset="1" stop-color="#F8924F"/>
</linearGradient>
<linearGradient id="paint20_linear_260_33555" x1="17.3581" y1="90.2581" x2="18.3305" y2="98.3629" gradientUnits="userSpaceOnUse">
<stop stop-color="#FFDB44"/>
<stop offset="1" stop-color="#FEEF06"/>
</linearGradient>
<linearGradient id="paint21_linear_260_33555" x1="14991.5" y1="3887.67" x2="14992.4" y2="3981.73" gradientUnits="userSpaceOnUse">
<stop stop-color="#FFDB44"/>
<stop offset="1" stop-color="#FEEF06"/>
</linearGradient>
<linearGradient id="paint22_linear_260_33555" x1="17.5948" y1="92.125" x2="17.2972" y2="89.6448" gradientUnits="userSpaceOnUse">
<stop stop-color="#F36F56"/>
<stop offset="0.31" stop-color="#F99C4C"/>
<stop offset="0.55" stop-color="#FDB946"/>
<stop offset="0.68" stop-color="#FFC444"/>
<stop offset="0.8" stop-color="#FFC244"/>
<stop offset="0.87" stop-color="#FEBA46"/>
<stop offset="0.92" stop-color="#FCAD49"/>
<stop offset="0.96" stop-color="#F99A4D"/>
<stop offset="1" stop-color="#F57E53"/>
</linearGradient>
<linearGradient id="paint23_linear_260_33555" x1="9337.95" y1="9010.65" x2="18391.4" y2="9010.65" gradientUnits="userSpaceOnUse">
<stop stop-color="#FCB148"/>
<stop offset="0.05" stop-color="#FDBA46"/>
<stop offset="0.14" stop-color="#FFC244"/>
<stop offset="0.32" stop-color="#FFC444"/>
<stop offset="0.48" stop-color="#FDB946"/>
<stop offset="0.78" stop-color="#F99C4D"/>
<stop offset="0.87" stop-color="#F8924F"/>
<stop offset="1" stop-color="#F8924F"/>
</linearGradient>
<linearGradient id="paint24_linear_260_33555" x1="13906.3" y1="6540.73" x2="13914.6" y2="7068.81" gradientUnits="userSpaceOnUse">
<stop stop-color="#FFDB44"/>
<stop offset="1" stop-color="#FEEF06"/>
</linearGradient>
<linearGradient id="paint25_linear_260_33555" x1="13894.8" y1="3816.5" x2="13895.6" y2="3910.54" gradientUnits="userSpaceOnUse">
<stop stop-color="#FFDB44"/>
<stop offset="1" stop-color="#FEEF06"/>
</linearGradient>
<linearGradient id="paint26_linear_260_33555" x1="12351.1" y1="1062.67" x2="12351.7" y2="1142.27" gradientUnits="userSpaceOnUse">
<stop stop-color="#F36F56"/>
<stop offset="0.31" stop-color="#F99C4C"/>
<stop offset="0.55" stop-color="#FDB946"/>
<stop offset="0.68" stop-color="#FFC444"/>
<stop offset="0.8" stop-color="#FFC244"/>
<stop offset="0.87" stop-color="#FEBA46"/>
<stop offset="0.92" stop-color="#FCAD49"/>
<stop offset="0.96" stop-color="#F99A4D"/>
<stop offset="1" stop-color="#F57E53"/>
</linearGradient>
<linearGradient id="paint27_linear_260_33555" x1="10283.9" y1="8846.32" x2="19337.7" y2="8846.32" gradientUnits="userSpaceOnUse">
<stop stop-color="#FCB148"/>
<stop offset="0.05" stop-color="#FDBA46"/>
<stop offset="0.14" stop-color="#FFC244"/>
<stop offset="0.32" stop-color="#FFC444"/>
<stop offset="0.48" stop-color="#FDB946"/>
<stop offset="0.78" stop-color="#F99C4D"/>
<stop offset="0.87" stop-color="#F8924F"/>
<stop offset="1" stop-color="#F8924F"/>
</linearGradient>
<linearGradient id="paint28_linear_260_33555" x1="14852.4" y1="6419.66" x2="14860.6" y2="6947.76" gradientUnits="userSpaceOnUse">
<stop stop-color="#FFDB44"/>
<stop offset="1" stop-color="#FEEF06"/>
</linearGradient>
<linearGradient id="paint29_linear_260_33555" x1="14841" y1="3745.69" x2="14841.8" y2="3839.73" gradientUnits="userSpaceOnUse">
<stop stop-color="#FFDB44"/>
<stop offset="1" stop-color="#FEEF06"/>
</linearGradient>
<linearGradient id="paint30_linear_260_33555" x1="11422.2" y1="1119.47" x2="11422.8" y2="1199.07" gradientUnits="userSpaceOnUse">
<stop stop-color="#F36F56"/>
<stop offset="0.31" stop-color="#F99C4C"/>
<stop offset="0.55" stop-color="#FDB946"/>
<stop offset="0.68" stop-color="#FFC444"/>
<stop offset="0.8" stop-color="#FFC244"/>
<stop offset="0.87" stop-color="#FEBA46"/>
<stop offset="0.92" stop-color="#FCAD49"/>
<stop offset="0.96" stop-color="#F99A4D"/>
<stop offset="1" stop-color="#F57E53"/>
</linearGradient>
<linearGradient id="paint31_linear_260_33555" x1="10857.7" y1="8683.68" x2="19911.1" y2="8683.68" gradientUnits="userSpaceOnUse">
<stop stop-color="#FCB148"/>
<stop offset="0.05" stop-color="#FDBA46"/>
<stop offset="0.14" stop-color="#FFC244"/>
<stop offset="0.32" stop-color="#FFC444"/>
<stop offset="0.48" stop-color="#FDB946"/>
<stop offset="0.78" stop-color="#F99C4D"/>
<stop offset="0.87" stop-color="#F8924F"/>
<stop offset="1" stop-color="#F8924F"/>
</linearGradient>
<linearGradient id="paint32_linear_260_33555" x1="9027.44" y1="5526.21" x2="9035.66" y2="6054.38" gradientUnits="userSpaceOnUse">
<stop stop-color="#FFDB44"/>
<stop offset="1" stop-color="#FEEF06"/>
</linearGradient>
<linearGradient id="paint33_linear_260_33555" x1="15415.5" y1="3674.55" x2="15416.4" y2="3768.6" gradientUnits="userSpaceOnUse">
<stop stop-color="#FFDB44"/>
<stop offset="1" stop-color="#FEEF06"/>
</linearGradient>
<linearGradient id="paint34_linear_260_33555" x1="10858.3" y1="1176.44" x2="10858.9" y2="1256.03" gradientUnits="userSpaceOnUse">
<stop stop-color="#F36F56"/>
<stop offset="0.31" stop-color="#F99C4C"/>
<stop offset="0.55" stop-color="#FDB946"/>
<stop offset="0.68" stop-color="#FFC444"/>
<stop offset="0.8" stop-color="#FFC244"/>
<stop offset="0.87" stop-color="#FEBA46"/>
<stop offset="0.92" stop-color="#FCAD49"/>
<stop offset="0.96" stop-color="#F99A4D"/>
<stop offset="1" stop-color="#F57E53"/>
</linearGradient>
<linearGradient id="paint35_linear_260_33555" x1="10434" y1="8506.04" x2="19487.5" y2="8506.04" gradientUnits="userSpaceOnUse">
<stop stop-color="#FCB148"/>
<stop offset="0.05" stop-color="#FDBA46"/>
<stop offset="0.14" stop-color="#FFC244"/>
<stop offset="0.32" stop-color="#FFC444"/>
<stop offset="0.48" stop-color="#FDB946"/>
<stop offset="0.78" stop-color="#F99C4D"/>
<stop offset="0.87" stop-color="#F8924F"/>
<stop offset="1" stop-color="#F8924F"/>
</linearGradient>
<linearGradient id="paint36_linear_260_33555" x1="15002.4" y1="6167.49" x2="15010.6" y2="6695.58" gradientUnits="userSpaceOnUse">
<stop stop-color="#FFDB44"/>
<stop offset="1" stop-color="#FEEF06"/>
</linearGradient>
<linearGradient id="paint37_linear_260_33555" x1="14991.5" y1="3597.74" x2="14992.4" y2="3691.78" gradientUnits="userSpaceOnUse">
<stop stop-color="#FFDB44"/>
<stop offset="1" stop-color="#FEEF06"/>
</linearGradient>
<linearGradient id="paint38_linear_260_33555" x1="11274.5" y1="1237.56" x2="11275.1" y2="1317.14" gradientUnits="userSpaceOnUse">
<stop stop-color="#F36F56"/>
<stop offset="0.31" stop-color="#F99C4C"/>
<stop offset="0.55" stop-color="#FDB946"/>
<stop offset="0.68" stop-color="#FFC444"/>
<stop offset="0.8" stop-color="#FFC244"/>
<stop offset="0.87" stop-color="#FEBA46"/>
<stop offset="0.92" stop-color="#FCAD49"/>
<stop offset="0.96" stop-color="#F99A4D"/>
<stop offset="1" stop-color="#F57E53"/>
</linearGradient>
<linearGradient id="paint39_linear_260_33555" x1="9337.95" y1="8342.41" x2="18391.4" y2="8342.41" gradientUnits="userSpaceOnUse">
<stop stop-color="#FCB148"/>
<stop offset="0.05" stop-color="#FDBA46"/>
<stop offset="0.14" stop-color="#FFC244"/>
<stop offset="0.32" stop-color="#FFC444"/>
<stop offset="0.48" stop-color="#FDB946"/>
<stop offset="0.78" stop-color="#F99C4D"/>
<stop offset="0.87" stop-color="#F8924F"/>
<stop offset="1" stop-color="#F8924F"/>
</linearGradient>
<linearGradient id="paint40_linear_260_33555" x1="7507.7" y1="5273.89" x2="7515.93" y2="5802.06" gradientUnits="userSpaceOnUse">
<stop stop-color="#FFDB44"/>
<stop offset="1" stop-color="#FEEF06"/>
</linearGradient>
<linearGradient id="paint41_linear_260_33555" x1="13894.8" y1="3526.65" x2="13895.6" y2="3620.7" gradientUnits="userSpaceOnUse">
<stop stop-color="#FFDB44"/>
<stop offset="1" stop-color="#FEEF06"/>
</linearGradient>
<linearGradient id="paint42_linear_260_33555" x1="12351.1" y1="1294.92" x2="12351.7" y2="1374.52" gradientUnits="userSpaceOnUse">
<stop stop-color="#F36F56"/>
<stop offset="0.31" stop-color="#F99C4C"/>
<stop offset="0.55" stop-color="#FDB946"/>
<stop offset="0.68" stop-color="#FFC444"/>
<stop offset="0.8" stop-color="#FFC244"/>
<stop offset="0.87" stop-color="#FEBA46"/>
<stop offset="0.92" stop-color="#FCAD49"/>
<stop offset="0.96" stop-color="#F99A4D"/>
<stop offset="1" stop-color="#F57E53"/>
</linearGradient>
<linearGradient id="paint43_linear_260_33555" x1="10283.9" y1="8180.03" x2="19337.7" y2="8180.03" gradientUnits="userSpaceOnUse">
<stop stop-color="#FCB148"/>
<stop offset="0.05" stop-color="#FDBA46"/>
<stop offset="0.14" stop-color="#FFC244"/>
<stop offset="0.32" stop-color="#FFC444"/>
<stop offset="0.48" stop-color="#FDB946"/>
<stop offset="0.78" stop-color="#F99C4D"/>
<stop offset="0.87" stop-color="#F8924F"/>
<stop offset="1" stop-color="#F8924F"/>
</linearGradient>
<linearGradient id="paint44_linear_260_33555" x1="8453.59" y1="5152.8" x2="8461.82" y2="5680.96" gradientUnits="userSpaceOnUse">
<stop stop-color="#FFDB44"/>
<stop offset="1" stop-color="#FEEF06"/>
</linearGradient>
<linearGradient id="paint45_linear_260_33555" x1="14841" y1="3455.66" x2="14841.8" y2="3549.7" gradientUnits="userSpaceOnUse">
<stop stop-color="#FFDB44"/>
<stop offset="1" stop-color="#FEEF06"/>
</linearGradient>
<linearGradient id="paint46_linear_260_33555" x1="11422.2" y1="1351.74" x2="11422.8" y2="1431.33" gradientUnits="userSpaceOnUse">
<stop stop-color="#F36F56"/>
<stop offset="0.31" stop-color="#F99C4C"/>
<stop offset="0.55" stop-color="#FDB946"/>
<stop offset="0.68" stop-color="#FFC444"/>
<stop offset="0.8" stop-color="#FFC244"/>
<stop offset="0.87" stop-color="#FEBA46"/>
<stop offset="0.92" stop-color="#FCAD49"/>
<stop offset="0.96" stop-color="#F99A4D"/>
<stop offset="1" stop-color="#F57E53"/>
</linearGradient>
<linearGradient id="paint47_linear_260_33555" x1="9792.45" y1="8015.36" x2="18846.5" y2="8015.36" gradientUnits="userSpaceOnUse">
<stop stop-color="#FCB148"/>
<stop offset="0.05" stop-color="#FDBA46"/>
<stop offset="0.14" stop-color="#FFC244"/>
<stop offset="0.32" stop-color="#FFC444"/>
<stop offset="0.48" stop-color="#FDB946"/>
<stop offset="0.78" stop-color="#F99C4D"/>
<stop offset="0.87" stop-color="#F8924F"/>
<stop offset="1" stop-color="#F8924F"/>
</linearGradient>
<linearGradient id="paint48_linear_260_33555" x1="7961.61" y1="5031.48" x2="7969.84" y2="5559.67" gradientUnits="userSpaceOnUse">
<stop stop-color="#FFDB44"/>
<stop offset="1" stop-color="#FEEF06"/>
</linearGradient>
<linearGradient id="paint49_linear_260_33555" x1="14349" y1="3384.59" x2="14349.9" y2="3478.63" gradientUnits="userSpaceOnUse">
<stop stop-color="#FFDB44"/>
<stop offset="1" stop-color="#FEEF06"/>
</linearGradient>
<linearGradient id="paint50_linear_260_33555" x1="11905.2" y1="1408.71" x2="11905.8" y2="1488.31" gradientUnits="userSpaceOnUse">
<stop stop-color="#F36F56"/>
<stop offset="0.31" stop-color="#F99C4C"/>
<stop offset="0.55" stop-color="#FDB946"/>
<stop offset="0.68" stop-color="#FFC444"/>
<stop offset="0.8" stop-color="#FFC244"/>
<stop offset="0.87" stop-color="#FEBA46"/>
<stop offset="0.92" stop-color="#FCAD49"/>
<stop offset="0.96" stop-color="#F99A4D"/>
<stop offset="1" stop-color="#F57E53"/>
</linearGradient>
<linearGradient id="paint51_linear_260_33555" x1="-18074.9" y1="37781.9" x2="-14510.6" y2="42737.8" gradientUnits="userSpaceOnUse">
<stop stop-color="#FCB148"/>
<stop offset="0.05" stop-color="#FDBA46"/>
<stop offset="0.14" stop-color="#FFC244"/>
<stop offset="0.32" stop-color="#FFC444"/>
<stop offset="0.48" stop-color="#FDB946"/>
<stop offset="0.78" stop-color="#F99C4D"/>
<stop offset="0.87" stop-color="#F8924F"/>
<stop offset="1" stop-color="#F8924F"/>
</linearGradient>
<linearGradient id="paint52_linear_260_33555" x1="-15203.4" y1="35898.7" x2="-17517.1" y2="38204.4" gradientUnits="userSpaceOnUse">
<stop stop-color="#FFDB44"/>
<stop offset="1" stop-color="#FEEF06"/>
</linearGradient>
<linearGradient id="paint53_linear_260_33555" x1="-15122.8" y1="35862.9" x2="-15834.8" y2="36572.3" gradientUnits="userSpaceOnUse">
<stop stop-color="#FFDB44"/>
<stop offset="1" stop-color="#FEEF06"/>
</linearGradient>
<linearGradient id="paint54_linear_260_33555" x1="18326.9" y1="-7576.42" x2="19021.6" y2="-8271.56" gradientUnits="userSpaceOnUse">
<stop stop-color="#F36F56"/>
<stop offset="0.31" stop-color="#F99C4C"/>
<stop offset="0.55" stop-color="#FDB946"/>
<stop offset="0.68" stop-color="#FFC444"/>
<stop offset="0.8" stop-color="#FFC244"/>
<stop offset="0.87" stop-color="#FEBA46"/>
<stop offset="0.92" stop-color="#FCAD49"/>
<stop offset="0.96" stop-color="#F99A4D"/>
<stop offset="1" stop-color="#F57E53"/>
</linearGradient>
<linearGradient id="paint55_linear_260_33555" x1="22699.2" y1="39473" x2="26661.8" y2="43221.5" gradientUnits="userSpaceOnUse">
<stop stop-color="#AA80F9"/>
<stop offset="1" stop-color="#6165D7"/>
</linearGradient>
<linearGradient id="paint56_linear_260_33555" x1="32700.8" y1="42313.4" x2="26743.5" y2="49292.9" gradientUnits="userSpaceOnUse">
<stop stop-color="#AA80F9"/>
<stop offset="1" stop-color="#6165D7"/>
</linearGradient>
<linearGradient id="paint57_linear_260_33555" x1="44596" y1="1396.91" x2="44594.8" y2="1523.19" gradientUnits="userSpaceOnUse">
<stop stop-color="#E38DDD"/>
<stop offset="1" stop-color="#9571F6"/>
</linearGradient>
<linearGradient id="paint58_linear_260_33555" x1="27065.9" y1="41660.6" x2="21106.8" y2="47512.2" gradientUnits="userSpaceOnUse">
<stop stop-color="#E38DDD"/>
<stop offset="1" stop-color="#9571F6"/>
</linearGradient>
<linearGradient id="paint59_linear_260_33555" x1="8380.14" y1="36047.1" x2="13871.9" y2="42252.2" gradientUnits="userSpaceOnUse">
<stop stop-color="#AB316D"/>
<stop offset="1" stop-color="#792D3D"/>
</linearGradient>
<linearGradient id="paint60_linear_260_33555" x1="8075.51" y1="39336.1" x2="8894" y2="39310.1" gradientUnits="userSpaceOnUse">
<stop stop-color="#AB316D"/>
<stop offset="1" stop-color="#792D3D"/>
</linearGradient>
<linearGradient id="paint61_linear_260_33555" x1="6738.55" y1="38836.1" x2="7487.97" y2="38813.1" gradientUnits="userSpaceOnUse">
<stop stop-color="#AB316D"/>
<stop offset="1" stop-color="#792D3D"/>
</linearGradient>
<linearGradient id="paint62_linear_260_33555" x1="26937.3" y1="1339.66" x2="27495.7" y2="-444.714" gradientUnits="userSpaceOnUse">
<stop stop-color="#AB316D"/>
<stop offset="1" stop-color="#792D3D"/>
</linearGradient>
<linearGradient id="paint63_linear_260_33555" x1="17266.6" y1="13335.3" x2="16605.1" y2="14105.6" gradientUnits="userSpaceOnUse">
<stop stop-color="#AB316D"/>
<stop offset="1" stop-color="#792D3D"/>
</linearGradient>
<linearGradient id="paint64_linear_260_33555" x1="17324.4" y1="6509.06" x2="17096.2" y2="7058.86" gradientUnits="userSpaceOnUse">
<stop stop-color="#AB316D"/>
<stop offset="1" stop-color="#792D3D"/>
</linearGradient>
<linearGradient id="paint65_linear_260_33555" x1="20680.9" y1="17220.9" x2="23315.9" y2="16760.5" gradientUnits="userSpaceOnUse">
<stop stop-color="#AB316D"/>
<stop offset="1" stop-color="#792D3D"/>
</linearGradient>
<linearGradient id="paint66_linear_260_33555" x1="19698.6" y1="11697.9" x2="22131.7" y2="11095.5" gradientUnits="userSpaceOnUse">
<stop stop-color="#AB316D"/>
<stop offset="1" stop-color="#792D3D"/>
</linearGradient>
<linearGradient id="paint67_linear_260_33555" x1="14362.9" y1="662.422" x2="14488.4" y2="182.774" gradientUnits="userSpaceOnUse">
<stop stop-color="#AB316D"/>
<stop offset="1" stop-color="#792D3D"/>
</linearGradient>
</defs>
</svg>
